<svg xmlns="http://www.w3.org/2000/svg" xmlns:xlink="http://www.w3.org/1999/xlink" contentStyleType="text/css" data-diagram-type="CLASS" height="1015px" preserveAspectRatio="none" style="width:1073px;height:1015px;background:#FFFFFF;" version="1.1" viewBox="0 0 1073 1015" width="1073px" zoomAndPan="magnify"><defs/><g><!--cluster MarcoConsiglio--><g class="cluster" data-entity="MarcoConsiglio" data-source-line="17" data-uid="ent0005" id="cluster_MarcoConsiglio"><path d="M8.5,52 L129.9287,52 A3.75,3.75 0 0 1 132.4287,54.5 L139.4287,74.2969 L1063.5,74.2969 A2.5,2.5 0 0 1 1066,76.7969 L1066,1005.5 A2.5,2.5 0 0 1 1063.5,1008 L8.5,1008 A2.5,2.5 0 0 1 6,1005.5 L6,54.5 A2.5,2.5 0 0 1 8.5,52" fill="none" style="stroke:#000000;stroke-width:1.5;"/><line style="stroke:#000000;stroke-width:1.5;" x1="6" x2="139.4287" y1="74.2969" y2="74.2969"/><text fill="#000000" font-family="sans-serif" font-size="14" font-weight="bold" lengthAdjust="spacing" textLength="120.4287" x="10" y="66.9951">MarcoConsiglio</text></g><!--cluster ModularArithmetic--><g class="cluster" data-entity="ModularArithmetic" data-source-line="16" data-uid="ent0003" id="cluster_ModularArithmetic"><path d="M201.5,79 L350.2588,79 A3.75,3.75 0 0 1 352.7588,81.5 L359.7588,101.2969 L1055.5,101.2969 A2.5,2.5 0 0 1 1058,103.7969 L1058,997.5 A2.5,2.5 0 0 1 1055.5,1000 L201.5,1000 A2.5,2.5 0 0 1 199,997.5 L199,81.5 A2.5,2.5 0 0 1 201.5,79" fill="none" style="stroke:#000000;stroke-width:1.5;"/><line style="stroke:#000000;stroke-width:1.5;" x1="199" x2="359.7588" y1="101.2969" y2="101.2969"/><text fill="#000000" font-family="sans-serif" font-size="14" font-weight="bold" lengthAdjust="spacing" textLength="147.7588" x="203" y="93.9951">ModularArithmetic</text></g><!--cluster Interfaces--><g class="cluster" data-entity="Interfaces" data-source-line="36" data-uid="ent0015" id="cluster_Interfaces"><path d="M251,215 L331.9326,215 A3.75,3.75 0 0 1 334.4326,217.5 L341.4326,237.2969 L381,237.2969 A2.5,2.5 0 0 1 383.5,239.7969 L383.5,329.5 A2.5,2.5 0 0 1 381,332 L251,332 A2.5,2.5 0 0 1 248.5,329.5 L248.5,217.5 A2.5,2.5 0 0 1 251,215" fill="none" style="stroke:#000000;stroke-width:1.5;"/><line style="stroke:#000000;stroke-width:1.5;" x1="248.5" x2="341.4326" y1="237.2969" y2="237.2969"/><text fill="#000000" font-family="sans-serif" font-size="14" font-weight="bold" lengthAdjust="spacing" textLength="79.9326" x="252.5" y="229.9951">Interfaces</text></g><!--cluster Builders--><g class="cluster" data-entity="Builders" data-source-line="40" data-uid="ent0017" id="cluster_Builders"><path d="M455.5,106 L521.4893,106 A3.75,3.75 0 0 1 523.9893,108.5 L530.9893,128.2969 L1047.5,128.2969 A2.5,2.5 0 0 1 1050,130.7969 L1050,545.5 A2.5,2.5 0 0 1 1047.5,548 L455.5,548 A2.5,2.5 0 0 1 453,545.5 L453,108.5 A2.5,2.5 0 0 1 455.5,106" fill="none" style="stroke:#000000;stroke-width:1.5;"/><line style="stroke:#000000;stroke-width:1.5;" x1="453" x2="530.9893" y1="128.2969" y2="128.2969"/><text fill="#000000" font-family="sans-serif" font-size="14" font-weight="bold" lengthAdjust="spacing" textLength="64.9893" x="457" y="120.9951">Builders</text></g><!--cluster States--><g class="cluster" data-entity="States" data-source-line="56" data-uid="ent0025" id="cluster_States"><path d="M513,223 L564.7432,223 A3.75,3.75 0 0 1 567.2432,225.5 L574.2432,245.2969 L1039.5,245.2969 A2.5,2.5 0 0 1 1042,247.7969 L1042,537.5 A2.5,2.5 0 0 1 1039.5,540 L513,540 A2.5,2.5 0 0 1 510.5,537.5 L510.5,225.5 A2.5,2.5 0 0 1 513,223" fill="none" style="stroke:#000000;stroke-width:1.5;"/><line style="stroke:#000000;stroke-width:1.5;" x1="510.5" x2="574.2432" y1="245.2969" y2="245.2969"/><text fill="#000000" font-family="sans-serif" font-size="14" font-weight="bold" lengthAdjust="spacing" textLength="50.7432" x="514.5" y="237.9951">States</text></g><!--cluster Operations--><g class="cluster" data-entity="Operations" data-source-line="84" data-uid="ent0040" id="cluster_Operations"><path d="M251.5,556 L339.6787,556 A3.75,3.75 0 0 1 342.1787,558.5 L349.1787,578.2969 L689,578.2969 A2.5,2.5 0 0 1 691.5,580.7969 L691.5,897.5 A2.5,2.5 0 0 1 689,900 L251.5,900 A2.5,2.5 0 0 1 249,897.5 L249,558.5 A2.5,2.5 0 0 1 251.5,556" fill="none" style="stroke:#000000;stroke-width:1.5;"/><line style="stroke:#000000;stroke-width:1.5;" x1="249" x2="349.1787" y1="578.2969" y2="578.2969"/><text fill="#000000" font-family="sans-serif" font-size="14" font-weight="bold" lengthAdjust="spacing" textLength="87.1787" x="253" y="570.9951">Operations</text></g><!--cluster Relative--><g class="cluster" data-entity="Relative" data-source-line="108" data-uid="ent0052" id="cluster_Relative"><path d="M259.5,583 L325.1338,583 A3.75,3.75 0 0 1 327.6338,585.5 L334.6338,605.2969 L665.5,605.2969 A2.5,2.5 0 0 1 668,607.7969 L668,647.5 A2.5,2.5 0 0 1 665.5,650 L259.5,650 A2.5,2.5 0 0 1 257,647.5 L257,585.5 A2.5,2.5 0 0 1 259.5,583" fill="none" style="stroke:#000000;stroke-width:1.5;"/><line style="stroke:#000000;stroke-width:1.5;" x1="257" x2="334.6338" y1="605.2969" y2="605.2969"/><text fill="#000000" font-family="sans-serif" font-size="14" font-weight="bold" lengthAdjust="spacing" textLength="64.6338" x="261" y="597.9951">Relative</text></g><!--cluster BCMathExtended--><g class="cluster" data-entity="BCMathExtended" data-source-line="28" data-uid="ent0011" id="cluster_BCMathExtended"><path d="M16.5,925 L152.7695,925 A3.75,3.75 0 0 1 155.2695,927.5 L162.2695,947.2969 L162.5,947.2969 A2.5,2.5 0 0 1 165,949.7969 L165,997.5 A2.5,2.5 0 0 1 162.5,1000 L16.5,1000 A2.5,2.5 0 0 1 14,997.5 L14,927.5 A2.5,2.5 0 0 1 16.5,925" fill="none" style="stroke:#000000;stroke-width:1.5;"/><line style="stroke:#000000;stroke-width:1.5;" x1="14" x2="162.2695" y1="947.2969" y2="947.2969"/><text fill="#000000" font-family="sans-serif" font-size="14" font-weight="bold" lengthAdjust="spacing" textLength="135.2695" x="18" y="939.9951">BCMathExtended</text></g><!--class Stringable__class--><g class="entity" data-entity="Stringable__class" data-source-line="14" data-uid="ent0002" id="entity_Stringable__class"><rect fill="#F1F1F1" height="40.2656" rx="2.5" ry="2.5" style="stroke:#181818;stroke-width:0.5;" width="103.75" x="37" y="4"/><ellipse cx="52" cy="24.1328" fill="#B4A7E5" rx="11" ry="11" style="stroke:#181818;stroke-width:1;"/><path d="M47.9219,19.8984 L47.9219,17.7422 L55.3125,17.7422 L55.3125,19.8984 L52.8438,19.8984 L52.8438,27.9766 L55.3125,27.9766 L55.3125,30.1328 L47.9219,30.1328 L47.9219,27.9766 L50.3906,27.9766 L50.3906,19.8984 L47.9219,19.8984 Z " fill="#000000"/><text fill="#000000" font-family="sans-serif" font-size="12" font-style="italic" lengthAdjust="spacing" textLength="64.4824" x="69.6338" y="20.1387">&#171;external&#187;</text><text fill="#000000" font-family="sans-serif" font-size="14" font-style="italic" lengthAdjust="spacing" textLength="71.75" x="66" y="35.9639">Stringable</text></g><!--class ModularArithmeticNumber__class--><g class="entity" data-entity="ModularArithmeticNumber__class" data-source-line="17" data-uid="ent0004" id="entity_ModularArithmeticNumber__class"><rect fill="#F1F1F1" height="32" rx="2.5" ry="2.5" style="stroke:#181818;stroke-width:0.5;" width="217.7803" x="207" y="909"/><ellipse cx="222" cy="925" fill="#A9DCDF" rx="11" ry="11" style="stroke:#181818;stroke-width:1;"/><path d="M222.1094,920.3438 L220.9531,925.4219 L223.2813,925.4219 L222.1094,920.3438 Z M220.625,918.1094 L223.6094,918.1094 L226.9688,930.5 L224.5156,930.5 L223.75,927.4375 L220.4688,927.4375 L219.7188,930.5 L217.2813,930.5 L220.625,918.1094 Z " fill="#000000"/><text fill="#000000" font-family="sans-serif" font-size="14" font-style="italic" lengthAdjust="spacing" textLength="185.7803" x="236" y="929.8467">ModularArithmeticNumber</text></g><!--class ModularNumber__class--><g class="entity" data-entity="ModularNumber__class" data-source-line="21" data-uid="ent0007" id="entity_ModularNumber__class"><rect fill="#F1F1F1" height="32" rx="2.5" ry="2.5" style="stroke:#181818;stroke-width:0.5;" width="144.8682" x="514" y="960"/><ellipse cx="529" cy="976" fill="#ADD1B2" rx="11" ry="11" style="stroke:#181818;stroke-width:1;"/><path d="M531.9688,981.6406 Q531.3906,981.9375 530.75,982.0781 Q530.1094,982.2344 529.4063,982.2344 Q526.9063,982.2344 525.5781,980.5938 Q524.2656,978.9375 524.2656,975.8125 Q524.2656,972.6875 525.5781,971.0313 Q526.9063,969.375 529.4063,969.375 Q530.1094,969.375 530.75,969.5313 Q531.4063,969.6875 531.9688,969.9844 L531.9688,972.7031 Q531.3438,972.125 530.75,971.8594 Q530.1563,971.5781 529.5313,971.5781 Q528.1875,971.5781 527.5,972.6563 Q526.8125,973.7188 526.8125,975.8125 Q526.8125,977.9063 527.5,978.9844 Q528.1875,980.0469 529.5313,980.0469 Q530.1563,980.0469 530.75,979.7813 Q531.3438,979.5 531.9688,978.9219 L531.9688,981.6406 Z " fill="#000000"/><text fill="#000000" font-family="sans-serif" font-size="14" lengthAdjust="spacing" textLength="112.8682" x="543" y="980.8467">ModularNumber</text></g><!--class ModularRelativeNumber__class--><g class="entity" data-entity="ModularRelativeNumber__class" data-source-line="25" data-uid="ent0009" id="entity_ModularRelativeNumber__class"><rect fill="#F1F1F1" height="32" rx="2.5" ry="2.5" style="stroke:#181818;stroke-width:0.5;" width="201.9551" x="485.5" y="910"/><ellipse cx="500.5" cy="926" fill="#ADD1B2" rx="11" ry="11" style="stroke:#181818;stroke-width:1;"/><path d="M503.4688,931.6406 Q502.8906,931.9375 502.25,932.0781 Q501.6094,932.2344 500.9063,932.2344 Q498.4063,932.2344 497.0781,930.5938 Q495.7656,928.9375 495.7656,925.8125 Q495.7656,922.6875 497.0781,921.0313 Q498.4063,919.375 500.9063,919.375 Q501.6094,919.375 502.25,919.5313 Q502.9063,919.6875 503.4688,919.9844 L503.4688,922.7031 Q502.8438,922.125 502.25,921.8594 Q501.6563,921.5781 501.0313,921.5781 Q499.6875,921.5781 499,922.6563 Q498.3125,923.7188 498.3125,925.8125 Q498.3125,927.9063 499,928.9844 Q499.6875,930.0469 501.0313,930.0469 Q501.6563,930.0469 502.25,929.7813 Q502.8438,929.5 503.4688,928.9219 L503.4688,931.6406 Z " fill="#000000"/><text fill="#000000" font-family="sans-serif" font-size="14" lengthAdjust="spacing" textLength="169.9551" x="514.5" y="930.8467">ModularRelativeNumber</text></g><!--class Ring__class--><g class="entity" data-entity="Ring__class" data-source-line="33" data-uid="ent0013" id="entity_Ring__class"><rect fill="#F1F1F1" height="32" rx="2.5" ry="2.5" style="stroke:#181818;stroke-width:0.5;" width="63.377" x="284.5" y="959"/><ellipse cx="299.5" cy="975" fill="#ADD1B2" rx="11" ry="11" style="stroke:#181818;stroke-width:1;"/><path d="M302.4688,980.6406 Q301.8906,980.9375 301.25,981.0781 Q300.6094,981.2344 299.9063,981.2344 Q297.4063,981.2344 296.0781,979.5938 Q294.7656,977.9375 294.7656,974.8125 Q294.7656,971.6875 296.0781,970.0313 Q297.4063,968.375 299.9063,968.375 Q300.6094,968.375 301.25,968.5313 Q301.9063,968.6875 302.4688,968.9844 L302.4688,971.7031 Q301.8438,971.125 301.25,970.8594 Q300.6563,970.5781 300.0313,970.5781 Q298.6875,970.5781 298,971.6563 Q297.3125,972.7188 297.3125,974.8125 Q297.3125,976.9063 298,977.9844 Q298.6875,979.0469 300.0313,979.0469 Q300.6563,979.0469 301.25,978.7813 Q301.8438,978.5 302.4688,977.9219 L302.4688,980.6406 Z " fill="#000000"/><text fill="#000000" font-family="sans-serif" font-size="14" lengthAdjust="spacing" textLength="31.377" x="313.5" y="979.8467">Ring</text></g><!--class Builder__interface--><g class="entity" data-entity="Builder__interface" data-source-line="37" data-uid="ent0016" id="entity_Builder__interface"><rect fill="#F1F1F1" height="32" rx="2.5" ry="2.5" style="stroke:#181818;stroke-width:0.5;" width="81.5127" x="275" y="242"/><ellipse cx="290" cy="258" fill="#B4A7E5" rx="11" ry="11" style="stroke:#181818;stroke-width:1;"/><path d="M285.9219,253.7656 L285.9219,251.6094 L293.3125,251.6094 L293.3125,253.7656 L290.8438,253.7656 L290.8438,261.8438 L293.3125,261.8438 L293.3125,264 L285.9219,264 L285.9219,261.8438 L288.3906,261.8438 L288.3906,253.7656 L285.9219,253.7656 Z " fill="#000000"/><text fill="#000000" font-family="sans-serif" font-size="14" font-style="italic" lengthAdjust="spacing" textLength="49.5127" x="304" y="262.8467">Builder</text></g><!--class BuilderState__interface--><g class="entity" data-entity="BuilderState__interface" data-source-line="53" data-uid="ent0024" id="entity_BuilderState__interface"><rect fill="#F1F1F1" height="32" rx="2.5" ry="2.5" style="stroke:#181818;stroke-width:0.5;" width="118.5703" x="256.5" y="292"/><ellipse cx="271.5" cy="308" fill="#B4A7E5" rx="11" ry="11" style="stroke:#181818;stroke-width:1;"/><path d="M267.4219,303.7656 L267.4219,301.6094 L274.8125,301.6094 L274.8125,303.7656 L272.3438,303.7656 L272.3438,311.8438 L274.8125,311.8438 L274.8125,314 L267.4219,314 L267.4219,311.8438 L269.8906,311.8438 L269.8906,303.7656 L267.4219,303.7656 Z " fill="#000000"/><text fill="#000000" font-family="sans-serif" font-size="14" font-style="italic" lengthAdjust="spacing" textLength="86.5703" x="285.5" y="312.8467">BuilderState</text></g><!--class ModularRelativeNumberBuilder__class--><g class="entity" data-entity="ModularRelativeNumberBuilder__class" data-source-line="41" data-uid="ent0018" id="entity_ModularRelativeNumberBuilder__class"><rect fill="#F1F1F1" height="32" rx="2.5" ry="2.5" style="stroke:#181818;stroke-width:0.5;" width="251.4678" x="461" y="183"/><ellipse cx="476" cy="199" fill="#A9DCDF" rx="11" ry="11" style="stroke:#181818;stroke-width:1;"/><path d="M476.1094,194.3438 L474.9531,199.4219 L477.2813,199.4219 L476.1094,194.3438 Z M474.625,192.1094 L477.6094,192.1094 L480.9688,204.5 L478.5156,204.5 L477.75,201.4375 L474.4688,201.4375 L473.7188,204.5 L471.2813,204.5 L474.625,192.1094 Z " fill="#000000"/><text fill="#000000" font-family="sans-serif" font-size="14" font-style="italic" lengthAdjust="spacing" textLength="219.4678" x="490" y="203.8467">ModularRelativeNumberBuilder</text></g><!--class FromExtremes__class--><g class="entity" data-entity="FromExtremes__class" data-source-line="45" data-uid="ent0020" id="entity_FromExtremes__class"><rect fill="#F1F1F1" height="32" rx="2.5" ry="2.5" style="stroke:#181818;stroke-width:0.5;" width="134.5459" x="823.5" y="133"/><ellipse cx="838.5" cy="149" fill="#ADD1B2" rx="11" ry="11" style="stroke:#181818;stroke-width:1;"/><path d="M841.4688,154.6406 Q840.8906,154.9375 840.25,155.0781 Q839.6094,155.2344 838.9063,155.2344 Q836.4063,155.2344 835.0781,153.5938 Q833.7656,151.9375 833.7656,148.8125 Q833.7656,145.6875 835.0781,144.0313 Q836.4063,142.375 838.9063,142.375 Q839.6094,142.375 840.25,142.5313 Q840.9063,142.6875 841.4688,142.9844 L841.4688,145.7031 Q840.8438,145.125 840.25,144.8594 Q839.6563,144.5781 839.0313,144.5781 Q837.6875,144.5781 837,145.6563 Q836.3125,146.7188 836.3125,148.8125 Q836.3125,150.9063 837,151.9844 Q837.6875,153.0469 839.0313,153.0469 Q839.6563,153.0469 840.25,152.7813 Q840.8438,152.5 841.4688,151.9219 L841.4688,154.6406 Z " fill="#000000"/><text fill="#000000" font-family="sans-serif" font-size="14" lengthAdjust="spacing" textLength="102.5459" x="852.5" y="153.8467">FromExtremes</text></g><!--class FromRing__class--><g class="entity" data-entity="FromRing__class" data-source-line="49" data-uid="ent0022" id="entity_FromRing__class"><rect fill="#F1F1F1" height="32" rx="2.5" ry="2.5" style="stroke:#181818;stroke-width:0.5;" width="99.3887" x="841.5" y="183"/><ellipse cx="856.5" cy="199" fill="#ADD1B2" rx="11" ry="11" style="stroke:#181818;stroke-width:1;"/><path d="M859.4688,204.6406 Q858.8906,204.9375 858.25,205.0781 Q857.6094,205.2344 856.9063,205.2344 Q854.4063,205.2344 853.0781,203.5938 Q851.7656,201.9375 851.7656,198.8125 Q851.7656,195.6875 853.0781,194.0313 Q854.4063,192.375 856.9063,192.375 Q857.6094,192.375 858.25,192.5313 Q858.9063,192.6875 859.4688,192.9844 L859.4688,195.7031 Q858.8438,195.125 858.25,194.8594 Q857.6563,194.5781 857.0313,194.5781 Q855.6875,194.5781 855,195.6563 Q854.3125,196.7188 854.3125,198.8125 Q854.3125,200.9063 855,201.9844 Q855.6875,203.0469 857.0313,203.0469 Q857.6563,203.0469 858.25,202.7813 Q858.8438,202.5 859.4688,201.9219 L859.4688,204.6406 Z " fill="#000000"/><text fill="#000000" font-family="sans-serif" font-size="14" lengthAdjust="spacing" textLength="67.3887" x="870.5" y="203.8467">FromRing</text></g><!--class EvaluatorState__class--><g class="entity" data-entity="EvaluatorState__class" data-source-line="57" data-uid="ent0026" id="entity_EvaluatorState__class"><rect fill="#F1F1F1" height="32" rx="2.5" ry="2.5" style="stroke:#181818;stroke-width:0.5;" width="135.9199" x="518.5" y="350"/><ellipse cx="533.5" cy="366" fill="#A9DCDF" rx="11" ry="11" style="stroke:#181818;stroke-width:1;"/><path d="M533.6094,361.3438 L532.4531,366.4219 L534.7813,366.4219 L533.6094,361.3438 Z M532.125,359.1094 L535.1094,359.1094 L538.4688,371.5 L536.0156,371.5 L535.25,368.4375 L531.9688,368.4375 L531.2188,371.5 L528.7813,371.5 L532.125,359.1094 Z " fill="#000000"/><text fill="#000000" font-family="sans-serif" font-size="14" font-style="italic" lengthAdjust="spacing" textLength="103.9199" x="547.5" y="370.8467">EvaluatorState</text></g><!--class EvaluationEnd__class--><g class="entity" data-entity="EvaluationEnd__class" data-source-line="61" data-uid="ent0028" id="entity_EvaluationEnd__class"><rect fill="#F1F1F1" height="32" rx="2.5" ry="2.5" style="stroke:#181818;stroke-width:0.5;" width="132.4746" x="825" y="500"/><ellipse cx="840" cy="516" fill="#ADD1B2" rx="11" ry="11" style="stroke:#181818;stroke-width:1;"/><path d="M842.9688,521.6406 Q842.3906,521.9375 841.75,522.0781 Q841.1094,522.2344 840.4063,522.2344 Q837.9063,522.2344 836.5781,520.5938 Q835.2656,518.9375 835.2656,515.8125 Q835.2656,512.6875 836.5781,511.0313 Q837.9063,509.375 840.4063,509.375 Q841.1094,509.375 841.75,509.5313 Q842.4063,509.6875 842.9688,509.9844 L842.9688,512.7031 Q842.3438,512.125 841.75,511.8594 Q841.1563,511.5781 840.5313,511.5781 Q839.1875,511.5781 838.5,512.6563 Q837.8125,513.7188 837.8125,515.8125 Q837.8125,517.9063 838.5,518.9844 Q839.1875,520.0469 840.5313,520.0469 Q841.1563,520.0469 841.75,519.7813 Q842.3438,519.5 842.9688,518.9219 L842.9688,521.6406 Z " fill="#000000"/><text fill="#000000" font-family="sans-serif" font-size="14" lengthAdjust="spacing" textLength="100.4746" x="854" y="520.8467">EvaluationEnd</text></g><!--class ValueInsideRingEndAndRingLength__class--><g class="entity" data-entity="ValueInsideRingEndAndRingLength__class" data-source-line="65" data-uid="ent0030" id="entity_ValueInsideRingEndAndRingLength__class"><rect fill="#F1F1F1" height="32" rx="2.5" ry="2.5" style="stroke:#181818;stroke-width:0.5;" width="278.4492" x="752" y="450"/><ellipse cx="767" cy="466" fill="#ADD1B2" rx="11" ry="11" style="stroke:#181818;stroke-width:1;"/><path d="M769.9688,471.6406 Q769.3906,471.9375 768.75,472.0781 Q768.1094,472.2344 767.4063,472.2344 Q764.9063,472.2344 763.5781,470.5938 Q762.2656,468.9375 762.2656,465.8125 Q762.2656,462.6875 763.5781,461.0313 Q764.9063,459.375 767.4063,459.375 Q768.1094,459.375 768.75,459.5313 Q769.4063,459.6875 769.9688,459.9844 L769.9688,462.7031 Q769.3438,462.125 768.75,461.8594 Q768.1563,461.5781 767.5313,461.5781 Q766.1875,461.5781 765.5,462.6563 Q764.8125,463.7188 764.8125,465.8125 Q764.8125,467.9063 765.5,468.9844 Q766.1875,470.0469 767.5313,470.0469 Q768.1563,470.0469 768.75,469.7813 Q769.3438,469.5 769.9688,468.9219 L769.9688,471.6406 Z " fill="#000000"/><text fill="#000000" font-family="sans-serif" font-size="14" lengthAdjust="spacing" textLength="246.4492" x="781" y="470.8467">ValueInsideRingEndAndRingLength</text></g><!--class ValueInsideRingLengthAndRingStart__class--><g class="entity" data-entity="ValueInsideRingLengthAndRingStart__class" data-source-line="69" data-uid="ent0032" id="entity_ValueInsideRingLengthAndRingStart__class"><rect fill="#F1F1F1" height="32" rx="2.5" ry="2.5" style="stroke:#181818;stroke-width:0.5;" width="286.0439" x="748" y="400"/><ellipse cx="763" cy="416" fill="#ADD1B2" rx="11" ry="11" style="stroke:#181818;stroke-width:1;"/><path d="M765.9688,421.6406 Q765.3906,421.9375 764.75,422.0781 Q764.1094,422.2344 763.4063,422.2344 Q760.9063,422.2344 759.5781,420.5938 Q758.2656,418.9375 758.2656,415.8125 Q758.2656,412.6875 759.5781,411.0313 Q760.9063,409.375 763.4063,409.375 Q764.1094,409.375 764.75,409.5313 Q765.4063,409.6875 765.9688,409.9844 L765.9688,412.7031 Q765.3438,412.125 764.75,411.8594 Q764.1563,411.5781 763.5313,411.5781 Q762.1875,411.5781 761.5,412.6563 Q760.8125,413.7188 760.8125,415.8125 Q760.8125,417.9063 761.5,418.9844 Q762.1875,420.0469 763.5313,420.0469 Q764.1563,420.0469 764.75,419.7813 Q765.3438,419.5 765.9688,418.9219 L765.9688,421.6406 Z " fill="#000000"/><text fill="#000000" font-family="sans-serif" font-size="14" lengthAdjust="spacing" textLength="254.0439" x="777" y="420.8467">ValueInsideRingLengthAndRingStart</text></g><!--class ValueNeedsReduction__class--><g class="entity" data-entity="ValueNeedsReduction__class" data-source-line="73" data-uid="ent0034" id="entity_ValueNeedsReduction__class"><rect fill="#F1F1F1" height="32" rx="2.5" ry="2.5" style="stroke:#181818;stroke-width:0.5;" width="186.0273" x="798" y="350"/><ellipse cx="813" cy="366" fill="#ADD1B2" rx="11" ry="11" style="stroke:#181818;stroke-width:1;"/><path d="M815.9688,371.6406 Q815.3906,371.9375 814.75,372.0781 Q814.1094,372.2344 813.4063,372.2344 Q810.9063,372.2344 809.5781,370.5938 Q808.2656,368.9375 808.2656,365.8125 Q808.2656,362.6875 809.5781,361.0313 Q810.9063,359.375 813.4063,359.375 Q814.1094,359.375 814.75,359.5313 Q815.4063,359.6875 815.9688,359.9844 L815.9688,362.7031 Q815.3438,362.125 814.75,361.8594 Q814.1563,361.5781 813.5313,361.5781 Q812.1875,361.5781 811.5,362.6563 Q810.8125,363.7188 810.8125,365.8125 Q810.8125,367.9063 811.5,368.9844 Q812.1875,370.0469 813.5313,370.0469 Q814.1563,370.0469 814.75,369.7813 Q815.3438,369.5 815.9688,368.9219 L815.9688,371.6406 Z " fill="#000000"/><text fill="#000000" font-family="sans-serif" font-size="14" lengthAdjust="spacing" textLength="154.0273" x="827" y="370.8467">ValueNeedsReduction</text></g><!--class ValueOutsideNegativeRingLength__class--><g class="entity" data-entity="ValueOutsideNegativeRingLength__class" data-source-line="77" data-uid="ent0036" id="entity_ValueOutsideNegativeRingLength__class"><rect fill="#F1F1F1" height="32" rx="2.5" ry="2.5" style="stroke:#181818;stroke-width:0.5;" width="268.3389" x="757" y="300"/><ellipse cx="772" cy="316" fill="#ADD1B2" rx="11" ry="11" style="stroke:#181818;stroke-width:1;"/><path d="M774.9688,321.6406 Q774.3906,321.9375 773.75,322.0781 Q773.1094,322.2344 772.4063,322.2344 Q769.9063,322.2344 768.5781,320.5938 Q767.2656,318.9375 767.2656,315.8125 Q767.2656,312.6875 768.5781,311.0313 Q769.9063,309.375 772.4063,309.375 Q773.1094,309.375 773.75,309.5313 Q774.4063,309.6875 774.9688,309.9844 L774.9688,312.7031 Q774.3438,312.125 773.75,311.8594 Q773.1563,311.5781 772.5313,311.5781 Q771.1875,311.5781 770.5,312.6563 Q769.8125,313.7188 769.8125,315.8125 Q769.8125,317.9063 770.5,318.9844 Q771.1875,320.0469 772.5313,320.0469 Q773.1563,320.0469 773.75,319.7813 Q774.3438,319.5 774.9688,318.9219 L774.9688,321.6406 Z " fill="#000000"/><text fill="#000000" font-family="sans-serif" font-size="14" lengthAdjust="spacing" textLength="236.3389" x="786" y="320.8467">ValueOutsideNegativeRingLength</text></g><!--class ValueOutsidePositiveRingLength__class--><g class="entity" data-entity="ValueOutsidePositiveRingLength__class" data-source-line="81" data-uid="ent0038" id="entity_ValueOutsidePositiveRingLength__class"><rect fill="#F1F1F1" height="32" rx="2.5" ry="2.5" style="stroke:#181818;stroke-width:0.5;" width="259.9785" x="761" y="250"/><ellipse cx="776" cy="266" fill="#ADD1B2" rx="11" ry="11" style="stroke:#181818;stroke-width:1;"/><path d="M778.9688,271.6406 Q778.3906,271.9375 777.75,272.0781 Q777.1094,272.2344 776.4063,272.2344 Q773.9063,272.2344 772.5781,270.5938 Q771.2656,268.9375 771.2656,265.8125 Q771.2656,262.6875 772.5781,261.0313 Q773.9063,259.375 776.4063,259.375 Q777.1094,259.375 777.75,259.5313 Q778.4063,259.6875 778.9688,259.9844 L778.9688,262.7031 Q778.3438,262.125 777.75,261.8594 Q777.1563,261.5781 776.5313,261.5781 Q775.1875,261.5781 774.5,262.6563 Q773.8125,263.7188 773.8125,265.8125 Q773.8125,267.9063 774.5,268.9844 Q775.1875,270.0469 776.5313,270.0469 Q777.1563,270.0469 777.75,269.7813 Q778.3438,269.5 778.9688,268.9219 L778.9688,271.6406 Z " fill="#000000"/><text fill="#000000" font-family="sans-serif" font-size="14" lengthAdjust="spacing" textLength="227.9785" x="790" y="270.8467">ValueOutsidePositiveRingLength</text></g><!--class Operation__class--><g class="entity" data-entity="Operation__class" data-source-line="85" data-uid="ent0041" id="entity_Operation__class"><rect fill="#F1F1F1" height="32" rx="2.5" ry="2.5" style="stroke:#181818;stroke-width:0.5;" width="101.6719" x="265" y="760"/><ellipse cx="280" cy="776" fill="#A9DCDF" rx="11" ry="11" style="stroke:#181818;stroke-width:1;"/><path d="M280.1094,771.3438 L278.9531,776.4219 L281.2813,776.4219 L280.1094,771.3438 Z M278.625,769.1094 L281.6094,769.1094 L284.9688,781.5 L282.5156,781.5 L281.75,778.4375 L278.4688,778.4375 L277.7188,781.5 L275.2813,781.5 L278.625,769.1094 Z " fill="#000000"/><text fill="#000000" font-family="sans-serif" font-size="14" font-style="italic" lengthAdjust="spacing" textLength="69.6719" x="294" y="780.8467">Operation</text></g><!--class ModularAddition__class--><g class="entity" data-entity="ModularAddition__class" data-source-line="89" data-uid="ent0042" id="entity_ModularAddition__class"><rect fill="#F1F1F1" height="32" rx="2.5" ry="2.5" style="stroke:#181818;stroke-width:0.5;" width="146.6865" x="513" y="860"/><ellipse cx="528" cy="876" fill="#ADD1B2" rx="11" ry="11" style="stroke:#181818;stroke-width:1;"/><path d="M530.9688,881.6406 Q530.3906,881.9375 529.75,882.0781 Q529.1094,882.2344 528.4063,882.2344 Q525.9063,882.2344 524.5781,880.5938 Q523.2656,878.9375 523.2656,875.8125 Q523.2656,872.6875 524.5781,871.0313 Q525.9063,869.375 528.4063,869.375 Q529.1094,869.375 529.75,869.5313 Q530.4063,869.6875 530.9688,869.9844 L530.9688,872.7031 Q530.3438,872.125 529.75,871.8594 Q529.1563,871.5781 528.5313,871.5781 Q527.1875,871.5781 526.5,872.6563 Q525.8125,873.7188 525.8125,875.8125 Q525.8125,877.9063 526.5,878.9844 Q527.1875,880.0469 528.5313,880.0469 Q529.1563,880.0469 529.75,879.7813 Q530.3438,879.5 530.9688,878.9219 L530.9688,881.6406 Z " fill="#000000"/><text fill="#000000" font-family="sans-serif" font-size="14" lengthAdjust="spacing" textLength="114.6865" x="542" y="880.8467">ModularAddition</text></g><!--class ModularDivision__class--><g class="entity" data-entity="ModularDivision__class" data-source-line="93" data-uid="ent0044" id="entity_ModularDivision__class"><rect fill="#F1F1F1" height="32" rx="2.5" ry="2.5" style="stroke:#181818;stroke-width:0.5;" width="144.0957" x="514.5" y="810"/><ellipse cx="529.5" cy="826" fill="#ADD1B2" rx="11" ry="11" style="stroke:#181818;stroke-width:1;"/><path d="M532.4688,831.6406 Q531.8906,831.9375 531.25,832.0781 Q530.6094,832.2344 529.9063,832.2344 Q527.4063,832.2344 526.0781,830.5938 Q524.7656,828.9375 524.7656,825.8125 Q524.7656,822.6875 526.0781,821.0313 Q527.4063,819.375 529.9063,819.375 Q530.6094,819.375 531.25,819.5313 Q531.9063,819.6875 532.4688,819.9844 L532.4688,822.7031 Q531.8438,822.125 531.25,821.8594 Q530.6563,821.5781 530.0313,821.5781 Q528.6875,821.5781 528,822.6563 Q527.3125,823.7188 527.3125,825.8125 Q527.3125,827.9063 528,828.9844 Q528.6875,830.0469 530.0313,830.0469 Q530.6563,830.0469 531.25,829.7813 Q531.8438,829.5 532.4688,828.9219 L532.4688,831.6406 Z " fill="#000000"/><text fill="#000000" font-family="sans-serif" font-size="14" lengthAdjust="spacing" textLength="112.0957" x="543.5" y="830.8467">ModularDivision</text></g><!--class ModularExponentiation__class--><g class="entity" data-entity="ModularExponentiation__class" data-source-line="97" data-uid="ent0046" id="entity_ModularExponentiation__class"><rect fill="#F1F1F1" height="32" rx="2.5" ry="2.5" style="stroke:#181818;stroke-width:0.5;" width="194.3467" x="489.5" y="760"/><ellipse cx="504.5" cy="776" fill="#ADD1B2" rx="11" ry="11" style="stroke:#181818;stroke-width:1;"/><path d="M507.4688,781.6406 Q506.8906,781.9375 506.25,782.0781 Q505.6094,782.2344 504.9063,782.2344 Q502.4063,782.2344 501.0781,780.5938 Q499.7656,778.9375 499.7656,775.8125 Q499.7656,772.6875 501.0781,771.0313 Q502.4063,769.375 504.9063,769.375 Q505.6094,769.375 506.25,769.5313 Q506.9063,769.6875 507.4688,769.9844 L507.4688,772.7031 Q506.8438,772.125 506.25,771.8594 Q505.6563,771.5781 505.0313,771.5781 Q503.6875,771.5781 503,772.6563 Q502.3125,773.7188 502.3125,775.8125 Q502.3125,777.9063 503,778.9844 Q503.6875,780.0469 505.0313,780.0469 Q505.6563,780.0469 506.25,779.7813 Q506.8438,779.5 507.4688,778.9219 L507.4688,781.6406 Z " fill="#000000"/><text fill="#000000" font-family="sans-serif" font-size="14" lengthAdjust="spacing" textLength="162.3467" x="518.5" y="780.8467">ModularExponentiation</text></g><!--class ModularMultiplication__class--><g class="entity" data-entity="ModularMultiplication__class" data-source-line="101" data-uid="ent0048" id="entity_ModularMultiplication__class"><rect fill="#F1F1F1" height="32" rx="2.5" ry="2.5" style="stroke:#181818;stroke-width:0.5;" width="182.6094" x="495" y="710"/><ellipse cx="510" cy="726" fill="#ADD1B2" rx="11" ry="11" style="stroke:#181818;stroke-width:1;"/><path d="M512.9688,731.6406 Q512.3906,731.9375 511.75,732.0781 Q511.1094,732.2344 510.4063,732.2344 Q507.9063,732.2344 506.5781,730.5938 Q505.2656,728.9375 505.2656,725.8125 Q505.2656,722.6875 506.5781,721.0313 Q507.9063,719.375 510.4063,719.375 Q511.1094,719.375 511.75,719.5313 Q512.4063,719.6875 512.9688,719.9844 L512.9688,722.7031 Q512.3438,722.125 511.75,721.8594 Q511.1563,721.5781 510.5313,721.5781 Q509.1875,721.5781 508.5,722.6563 Q507.8125,723.7188 507.8125,725.8125 Q507.8125,727.9063 508.5,728.9844 Q509.1875,730.0469 510.5313,730.0469 Q511.1563,730.0469 511.75,729.7813 Q512.3438,729.5 512.9688,728.9219 L512.9688,731.6406 Z " fill="#000000"/><text fill="#000000" font-family="sans-serif" font-size="14" lengthAdjust="spacing" textLength="150.6094" x="524" y="730.8467">ModularMultiplication</text></g><!--class ModularSubtraction__class--><g class="entity" data-entity="ModularSubtraction__class" data-source-line="105" data-uid="ent0050" id="entity_ModularSubtraction__class"><rect fill="#F1F1F1" height="32" rx="2.5" ry="2.5" style="stroke:#181818;stroke-width:0.5;" width="169.6143" x="501.5" y="660"/><ellipse cx="516.5" cy="676" fill="#ADD1B2" rx="11" ry="11" style="stroke:#181818;stroke-width:1;"/><path d="M519.4688,681.6406 Q518.8906,681.9375 518.25,682.0781 Q517.6094,682.2344 516.9063,682.2344 Q514.4063,682.2344 513.0781,680.5938 Q511.7656,678.9375 511.7656,675.8125 Q511.7656,672.6875 513.0781,671.0313 Q514.4063,669.375 516.9063,669.375 Q517.6094,669.375 518.25,669.5313 Q518.9063,669.6875 519.4688,669.9844 L519.4688,672.7031 Q518.8438,672.125 518.25,671.8594 Q517.6563,671.5781 517.0313,671.5781 Q515.6875,671.5781 515,672.6563 Q514.3125,673.7188 514.3125,675.8125 Q514.3125,677.9063 515,678.9844 Q515.6875,680.0469 517.0313,680.0469 Q517.6563,680.0469 518.25,679.7813 Q518.8438,679.5 519.4688,678.9219 L519.4688,681.6406 Z " fill="#000000"/><text fill="#000000" font-family="sans-serif" font-size="14" lengthAdjust="spacing" textLength="137.6143" x="530.5" y="680.8467">ModularSubtraction</text></g><!--class Operation__class--><g class="entity" data-entity="Operation__class" data-source-line="109" data-uid="ent0053" id="entity_Operation__class"><rect fill="#F1F1F1" height="32" rx="2.5" ry="2.5" style="stroke:#181818;stroke-width:0.5;" width="101.6719" x="265" y="610"/><ellipse cx="280" cy="626" fill="#A9DCDF" rx="11" ry="11" style="stroke:#181818;stroke-width:1;"/><path d="M280.1094,621.3438 L278.9531,626.4219 L281.2813,626.4219 L280.1094,621.3438 Z M278.625,619.1094 L281.6094,619.1094 L284.9688,631.5 L282.5156,631.5 L281.75,628.4375 L278.4688,628.4375 L277.7188,631.5 L275.2813,631.5 L278.625,619.1094 Z " fill="#000000"/><text fill="#000000" font-family="sans-serif" font-size="14" font-style="italic" lengthAdjust="spacing" textLength="69.6719" x="294" y="630.8467">Operation</text></g><!--class ModularAddition__class--><g class="entity" data-entity="ModularAddition__class" data-source-line="113" data-uid="ent0054" id="entity_ModularAddition__class"><rect fill="#F1F1F1" height="32" rx="2.5" ry="2.5" style="stroke:#181818;stroke-width:0.5;" width="146.6865" x="513" y="610"/><ellipse cx="528" cy="626" fill="#ADD1B2" rx="11" ry="11" style="stroke:#181818;stroke-width:1;"/><path d="M530.9688,631.6406 Q530.3906,631.9375 529.75,632.0781 Q529.1094,632.2344 528.4063,632.2344 Q525.9063,632.2344 524.5781,630.5938 Q523.2656,628.9375 523.2656,625.8125 Q523.2656,622.6875 524.5781,621.0313 Q525.9063,619.375 528.4063,619.375 Q529.1094,619.375 529.75,619.5313 Q530.4063,619.6875 530.9688,619.9844 L530.9688,622.7031 Q530.3438,622.125 529.75,621.8594 Q529.1563,621.5781 528.5313,621.5781 Q527.1875,621.5781 526.5,622.6563 Q525.8125,623.7188 525.8125,625.8125 Q525.8125,627.9063 526.5,628.9844 Q527.1875,630.0469 528.5313,630.0469 Q529.1563,630.0469 529.75,629.7813 Q530.3438,629.5 530.9688,628.9219 L530.9688,631.6406 Z " fill="#000000"/><text fill="#000000" font-family="sans-serif" font-size="14" lengthAdjust="spacing" textLength="114.6865" x="542" y="630.8467">ModularAddition</text></g><!--class Range__class--><g class="entity" data-entity="Range__class" data-source-line="29" data-uid="ent0012" id="entity_Range__class"><rect fill="#F1F1F1" height="40.2656" rx="2.5" ry="2.5" style="stroke:#181818;stroke-width:0.5;" width="92.4824" x="43" y="952"/><ellipse cx="58" cy="972.1328" fill="#ADD1B2" rx="11" ry="11" style="stroke:#181818;stroke-width:1;"/><path d="M60.9688,977.7734 Q60.3906,978.0703 59.75,978.2109 Q59.1094,978.3672 58.4063,978.3672 Q55.9063,978.3672 54.5781,976.7266 Q53.2656,975.0703 53.2656,971.9453 Q53.2656,968.8203 54.5781,967.1641 Q55.9063,965.5078 58.4063,965.5078 Q59.1094,965.5078 59.75,965.6641 Q60.4063,965.8203 60.9688,966.1172 L60.9688,968.8359 Q60.3438,968.2578 59.75,967.9922 Q59.1563,967.7109 58.5313,967.7109 Q57.1875,967.7109 56.5,968.7891 Q55.8125,969.8516 55.8125,971.9453 Q55.8125,974.0391 56.5,975.1172 Q57.1875,976.1797 58.5313,976.1797 Q59.1563,976.1797 59.75,975.9141 Q60.3438,975.6328 60.9688,975.0547 L60.9688,977.7734 Z " fill="#000000"/><text fill="#000000" font-family="sans-serif" font-size="12" font-style="italic" lengthAdjust="spacing" textLength="64.4824" x="70" y="968.1387">&#171;external&#187;</text><text fill="#000000" font-family="sans-serif" font-size="14" lengthAdjust="spacing" textLength="44.6797" x="79.9014" y="983.9639">Range</text></g><g class="link" data-entity-1="Stringable__class" data-entity-2="ModularArithmeticNumber__class" data-uid="lnk6" id="link_Stringable__class_ModularArithmeticNumber__class"><polygon fill="none" points="91.0768,44.0424,86.0775,62.3456,98.0593,61.6845,91.0768,44.0424" style="stroke:#516F42;stroke-width:1;"/><path d="M92.0684,62.015 C98.9682,187.0743 137.6514,839.1252 199,904 C201.3905,906.528 203.9751,908.8128 206.7174,910.8756" fill="none" style="stroke:#516F42;stroke-width:1;stroke-dasharray:7,7;"/></g><g class="link" data-entity-1="ModularArithmeticNumber__class" data-entity-2="ModularNumber__class" data-uid="lnk8" id="link_ModularArithmeticNumber__class_ModularNumber__class"><polygon fill="none" points="400.7872,941.051,417.3416,950.322,419.5933,938.5351,400.7872,941.051" style="stroke:#516F42;stroke-width:1;"/><path d="M418.4675,944.4285 C435.732,947.7266 436.1142,947.7929 453,951 C472.7785,954.7565 494.2214,958.8104 513.9785,962.538" fill="none" style="stroke:#516F42;stroke-width:1;"/></g><g class="link" data-entity-1="ModularArithmeticNumber__class" data-entity-2="ModularRelativeNumber__class" data-uid="lnk10" id="link_ModularArithmeticNumber__class_ModularRelativeNumber__class"><polygon fill="none" points="425.0486,925.4024,443.0261,931.4694,443.0708,919.4695,425.0486,925.4024" style="stroke:#516F42;stroke-width:1;"/><path d="M443.0485,925.4695 C463.0122,925.5438 465.7804,925.5541 485.4929,925.6275" fill="none" style="stroke:#516F42;stroke-width:1;"/></g><g class="link" data-entity-1="Range__class" data-entity-2="Ring__class" data-uid="lnk14" id="link_Range__class_Ring__class"><polygon fill="none" points="135.2614,972.6035,153.1799,978.8429,153.3398,966.844,135.2614,972.6035" style="stroke:#516F42;stroke-width:1;"/><path d="M153.2598,972.8435 C197.5328,973.4338 245.7519,974.0767 284.2384,974.5898" fill="none" style="stroke:#516F42;stroke-width:1;"/></g><g class="link" data-entity-1="Builder__interface" data-entity-2="ModularRelativeNumberBuilder__class" data-uid="lnk19" id="link_Builder__interface_ModularRelativeNumberBuilder__class"><polygon fill="none" points="357.118,245.0138,376.0874,245.4146,372.534,233.9528,357.118,245.0138" style="stroke:#516F42;stroke-width:1;"/><path d="M374.3107,239.6837 C401.2104,231.3442 420.3605,226.112 453,219 C459.3646,217.6132 465.922,216.2905 472.554,215.0345" fill="none" style="stroke:#516F42;stroke-width:1;stroke-dasharray:7,7;"/></g><g class="link" data-entity-1="ModularRelativeNumberBuilder__class" data-entity-2="FromExtremes__class" data-uid="lnk21" id="link_ModularRelativeNumberBuilder__class_FromExtremes__class"><polygon fill="none" points="684.4611,182.9734,703.1986,185.9577,701.2417,174.1183,684.4611,182.9734" style="stroke:#516F42;stroke-width:1;"/><path d="M702.2201,180.038 C747.497,172.5542 782.4984,166.7689 823.2274,160.0368" fill="none" style="stroke:#516F42;stroke-width:1;"/></g><g class="link" data-entity-1="ModularRelativeNumberBuilder__class" data-entity-2="FromRing__class" data-uid="lnk23" id="link_ModularRelativeNumberBuilder__class_FromRing__class"><polygon fill="none" points="712.2848,199,730.2848,205,730.2848,193,712.2848,199" style="stroke:#516F42;stroke-width:1;"/><path d="M730.2848,199 C775.6915,199 806.3827,199 841.2958,199" fill="none" style="stroke:#516F42;stroke-width:1;"/></g><g class="link" data-entity-1="BuilderState__interface" data-entity-2="EvaluatorState__class" data-uid="lnk27" id="link_BuilderState__interface_EvaluatorState__class"><polygon fill="none" points="368.616,324.0317,384.1907,334.8683,387.5777,323.3562,368.616,324.0317" style="stroke:#516F42;stroke-width:1;"/><path d="M385.8842,329.1122 C411.141,336.5431 424.834,339.9631 453,346 C474.1551,350.5342 497.4262,354.4135 518.4839,357.5153" fill="none" style="stroke:#516F42;stroke-width:1;stroke-dasharray:7,7;"/></g><g class="link" data-entity-1="EvaluatorState__class" data-entity-2="EvaluationEnd__class" data-uid="lnk29" id="link_EvaluatorState__class_EvaluationEnd__class"><polygon fill="none" points="602.6124,382.0684,610.9051,399.1338,619.4858,390.7451,602.6124,382.0684" style="stroke:#516F42;stroke-width:1;"/><path d="M615.1955,394.9395 C641.787,422.1394 687.3177,464.0478 748,491 C771.9064,501.6181 799.9569,507.7332 824.7847,511.2524" fill="none" style="stroke:#516F42;stroke-width:1;"/></g><g class="link" data-entity-1="EvaluatorState__class" data-entity-2="ValueInsideRingEndAndRingLength__class" data-uid="lnk31" id="link_EvaluatorState__class_ValueInsideRingEndAndRingLength__class"><polygon fill="none" points="615.8632,382.0588,628.8009,395.9375,634.5405,385.3991,615.8632,382.0588" style="stroke:#516F42;stroke-width:1;"/><path d="M631.6707,390.6683 C663.0455,407.7563 699.751,425.7727 748,441 C758.7421,444.3902 770.0953,447.361 781.513,449.9551" fill="none" style="stroke:#516F42;stroke-width:1;"/></g><g class="link" data-entity-1="EvaluatorState__class" data-entity-2="ValueInsideRingLengthAndRingStart__class" data-uid="lnk33" id="link_EvaluatorState__class_ValueInsideRingLengthAndRingStart__class"><polygon fill="none" points="654.6346,377.0966,671.4151,385.9517,673.3721,374.1123,654.6346,377.0966" style="stroke:#516F42;stroke-width:1;"/><path d="M672.3936,380.032 C713.0367,386.7499 747.8025,392.4963 792.9184,399.9535" fill="none" style="stroke:#516F42;stroke-width:1;"/></g><g class="link" data-entity-1="EvaluatorState__class" data-entity-2="ValueNeedsReduction__class" data-uid="lnk35" id="link_EvaluatorState__class_ValueNeedsReduction__class"><polygon fill="none" points="654.6346,366,672.6346,372,672.6346,360,654.6346,366" style="stroke:#516F42;stroke-width:1;"/><path d="M672.6346,366 C714.7572,366 751.6423,366 797.8151,366" fill="none" style="stroke:#516F42;stroke-width:1;"/></g><g class="link" data-entity-1="EvaluatorState__class" data-entity-2="ValueOutsideNegativeRingLength__class" data-uid="lnk37" id="link_EvaluatorState__class_ValueOutsideNegativeRingLength__class"><polygon fill="none" points="654.713,355.2997,673.4367,358.3692,671.5337,346.521,654.713,355.2997" style="stroke:#516F42;stroke-width:1;"/><path d="M672.4852,352.4451 C691.0494,349.4633 693.4231,349.0575 712,346 C739.2119,341.5212 768.7488,336.5767 795.7968,332.0158" fill="none" style="stroke:#516F42;stroke-width:1;"/></g><g class="link" data-entity-1="EvaluatorState__class" data-entity-2="ValueOutsidePositiveRingLength__class" data-uid="lnk39" id="link_EvaluatorState__class_ValueOutsidePositiveRingLength__class"><polygon fill="none" points="654.5134,365.3832,673.1706,368.834,671.5097,356.9495,654.5134,365.3832" style="stroke:#516F42;stroke-width:1;"/><path d="M672.3402,362.8917 C692.0959,360.1307 695.1012,356.9574 712,346 C736.5131,330.1054 723.6067,307.0778 748,291 C753.1206,287.625 758.5617,284.667 764.215,282.0771" fill="none" style="stroke:#516F42;stroke-width:1;"/></g><g class="link" data-entity-1="Operation__class" data-entity-2="ModularAddition__class" data-uid="lnk43" id="link_Operation__class_ModularAddition__class"><polygon fill="none" points="367.0089,775.9679,384.2221,783.9495,385.5684,772.0253,367.0089,775.9679" style="stroke:#516F42;stroke-width:1;"/><path d="M384.8952,777.9874 C404.5865,780.2106 408.5,783.6763 425,796 C446.9766,812.4141 431.0511,834.5488 453,851 C470.1396,863.8465 491.954,870.7035 512.9118,874.2114" fill="none" style="stroke:#516F42;stroke-width:1;"/></g><g class="link" data-entity-1="Operation__class" data-entity-2="ModularDivision__class" data-uid="lnk45" id="link_Operation__class_ModularDivision__class"><polygon fill="none" points="367.0087,785.2429,383.6162,794.4186,385.8001,782.619,367.0087,785.2429" style="stroke:#516F42;stroke-width:1;"/><path d="M384.7081,788.5188 C402.9601,791.8969 406.0654,792.4772 425,796 C454.2624,801.4443 486.5211,807.4694 514.3954,812.683" fill="none" style="stroke:#516F42;stroke-width:1;"/></g><g class="link" data-entity-1="Operation__class" data-entity-2="ModularExponentiation__class" data-uid="lnk47" id="link_Operation__class_ModularExponentiation__class"><polygon fill="none" points="367.1878,776,385.1878,782,385.1878,770,367.1878,776" style="stroke:#516F42;stroke-width:1;"/><path d="M385.1878,776 C419.4911,776 448.0469,776 489.3548,776" fill="none" style="stroke:#516F42;stroke-width:1;"/></g><g class="link" data-entity-1="Operation__class" data-entity-2="ModularMultiplication__class" data-uid="lnk49" id="link_Operation__class_ModularMultiplication__class"><polygon fill="none" points="367.1878,766.654,385.982,769.2573,383.7852,757.4601,367.1878,766.654" style="stroke:#516F42;stroke-width:1;"/><path d="M384.8836,763.3587 C421.9949,756.4479 455.7509,750.1618 499.3839,742.0365" fill="none" style="stroke:#516F42;stroke-width:1;"/></g><g class="link" data-entity-1="Operation__class" data-entity-2="ModularSubtraction__class" data-uid="lnk51" id="link_Operation__class_ModularSubtraction__class"><polygon fill="none" points="340.9467,759.7012,359.3022,754.8975,352.7488,744.8449,340.9467,759.7012" style="stroke:#516F42;stroke-width:1;"/><path d="M356.0255,749.8712 C382.3565,732.7058 411.389,715.9646 453,701 C468.3096,695.4942 485.0723,691.1353 501.3707,687.7063" fill="none" style="stroke:#516F42;stroke-width:1;"/></g><g class="link" data-entity-1="Operation__class" data-entity-2="ModularAddition__class" data-uid="lnk55" id="link_Operation__class_ModularAddition__class"><polygon fill="none" points="367.1878,626,385.1878,632,385.1878,620,367.1878,626" style="stroke:#516F42;stroke-width:1;"/><path d="M385.1878,626 C426.1696,626 466.6392,626 512.7557,626" fill="none" style="stroke:#516F42;stroke-width:1;"/></g><!--SRC=[tPVRRjim38Rl_HHSzmGRjbqL1Nh8W09BEoJ0hWm4ZCNOGcN9aEIsGT5tdtoC3t6JfTxQp5SoIOl_Hr6o_I7H6CO80jSgjM1YiYZH0m1pnsM26cCurrezN2gXD7py-kdRwildjXy3o- -vNLyepKZl4uZ1NQXLAbaPlCglxS5N76CbsTwJL_7xv30HClN0PGWh58OyRzYryGWkoQuJ0gLjfBo8CmAA4xk6cE8bQUC9Mbcm2ZGF8mkCQtBQbFGCMP0Oaqame3bbqradpVSzZqjBUkNCS3AtsgN5fQ0JG0ERsyKY46WCd9u2FRfmYGBEpfwyPw-U5AQe0tMffE6XuChtfugb0lMvvZPoQyi3UCfA0BWqLhkI0HHpdlG2Rz8C9fSmuAlqk8l7YQ2Of3MEfg-uoFbyaDAEmBwihfYiDf9bGdQcs6Bgp3QYyXa9T2rAVOAsvmr9BYwdQAD9dfPO-KX9CKCP5XsPZuQQyVNbchdcAVAumJx5QAls_PQ-mrRGzw-h3LbrRsE7NgHSi789o_5YiV4VchASokpOekrkQMfvAM1ei_vHAMgDJTnnQ2l8xrh5RYcr4sXogARXmArHfQgTBrTeVA2wfQkRTmsoH-lFBLfgzdzk67CJPAyHD-NWPfZSeqYpr-T6IjiqRiFt-CR5wr2vZuM9P4semlBgjYcI-lv0gVuEr2-NYwxT18ootdSSvv9benyaGnlbc3jY_Wlm0gNaSWzekmsz7tN4y3T4pCo8fVa7y0QtRJzYmDlKPWjtGs5-3c_hwi6GuyV-gGpVWTqFUQVOjmdf_9mTVENK4JbaVTTuqOoLkljJnXYlytPi1rPpax8n7hs47OuhzuDkEXoLxPWu9e-9akvpWcDtLTgUOsAQfiBoHF2WnzJs71FJF5tcExW3r32_Jnht2rj-rx_XKTGJyMyFfIhvomN-3G00]--></g></svg>