<svg xmlns="http://www.w3.org/2000/svg" xmlns:xlink="http://www.w3.org/1999/xlink" contentStyleType="text/css" data-diagram-type="CLASS" height="463px" preserveAspectRatio="none" style="width:626px;height:463px;background:#FFFFFF;" version="1.1" viewBox="0 0 626 463" width="626px" zoomAndPan="magnify"><defs/><g><!--cluster Marcoconsiglio--><g class="cluster" data-entity="Marcoconsiglio" data-source-line="15" data-uid="ent0004" id="cluster_Marcoconsiglio"><path d="M156.5,4 L275.9531,4 A3.75,3.75 0 0 1 278.4531,6.5 L285.4531,26.2969 L616.5,26.2969 A2.5,2.5 0 0 1 619,28.7969 L619,453.5 A2.5,2.5 0 0 1 616.5,456 L156.5,456 A2.5,2.5 0 0 1 154,453.5 L154,6.5 A2.5,2.5 0 0 1 156.5,4" fill="none" style="stroke:#000000;stroke-width:1.5;"/><line style="stroke:#000000;stroke-width:1.5;" x1="154" x2="285.4531" y1="26.2969" y2="26.2969"/><text fill="#000000" font-family="sans-serif" font-size="14" font-weight="bold" lengthAdjust="spacing" textLength="118.4531" x="158" y="18.9951">Marcoconsiglio</text></g><!--cluster ModularArithmetic--><g class="cluster" data-entity="ModularArithmetic" data-source-line="14" data-uid="ent0002" id="cluster_ModularArithmetic"><path d="M164.5,31 L313.2588,31 A3.75,3.75 0 0 1 315.7588,33.5 L322.7588,53.2969 L608.5,53.2969 A2.5,2.5 0 0 1 611,55.7969 L611,445.5 A2.5,2.5 0 0 1 608.5,448 L164.5,448 A2.5,2.5 0 0 1 162,445.5 L162,33.5 A2.5,2.5 0 0 1 164.5,31" fill="none" style="stroke:#000000;stroke-width:1.5;"/><line style="stroke:#000000;stroke-width:1.5;" x1="162" x2="322.7588" y1="53.2969" y2="53.2969"/><text fill="#000000" font-family="sans-serif" font-size="14" font-weight="bold" lengthAdjust="spacing" textLength="147.7588" x="166" y="45.9951">ModularArithmetic</text></g><!--cluster Exceptions--><g class="cluster" data-entity="Exceptions" data-source-line="20" data-uid="ent0006" id="cluster_Exceptions"><path d="M172.5,58 L259.3184,58 A3.75,3.75 0 0 1 261.8184,60.5 L268.8184,80.2969 L370.5,80.2969 A2.5,2.5 0 0 1 373,82.7969 L373,122.5 A2.5,2.5 0 0 1 370.5,125 L172.5,125 A2.5,2.5 0 0 1 170,122.5 L170,60.5 A2.5,2.5 0 0 1 172.5,58" fill="none" style="stroke:#000000;stroke-width:1.5;"/><line style="stroke:#000000;stroke-width:1.5;" x1="170" x2="268.8184" y1="80.2969" y2="80.2969"/><text fill="#000000" font-family="sans-serif" font-size="14" font-weight="bold" lengthAdjust="spacing" textLength="85.8184" x="174" y="72.9951">Exceptions</text></g><!--cluster Operations--><g class="cluster" data-entity="Operations" data-source-line="24" data-uid="ent0009" id="cluster_Operations"><path d="M215,133 L303.1787,133 A3.75,3.75 0 0 1 305.6787,135.5 L312.6787,155.2969 L600.5,155.2969 A2.5,2.5 0 0 1 603,157.7969 L603,397.5 A2.5,2.5 0 0 1 600.5,400 L215,400 A2.5,2.5 0 0 1 212.5,397.5 L212.5,135.5 A2.5,2.5 0 0 1 215,133" fill="none" style="stroke:#000000;stroke-width:1.5;"/><line style="stroke:#000000;stroke-width:1.5;" x1="212.5" x2="312.6787" y1="155.2969" y2="155.2969"/><text fill="#000000" font-family="sans-serif" font-size="14" font-weight="bold" lengthAdjust="spacing" textLength="87.1787" x="216.5" y="147.9951">Operations</text></g><!--class ErrorException__class--><g class="entity" data-entity="ErrorException__class" data-source-line="18" data-uid="ent0005" id="entity_ErrorException__class"><rect fill="#F1F1F1" height="40.2656" rx="2.5" ry="2.5" style="stroke:#181818;stroke-width:0.5;" width="135.8242" x="6" y="81"/><ellipse cx="21" cy="101.1328" fill="#ADD1B2" rx="11" ry="11" style="stroke:#181818;stroke-width:1;"/><path d="M23.9688,106.7734 Q23.3906,107.0703 22.75,107.2109 Q22.1094,107.3672 21.4063,107.3672 Q18.9063,107.3672 17.5781,105.7266 Q16.2656,104.0703 16.2656,100.9453 Q16.2656,97.8203 17.5781,96.1641 Q18.9063,94.5078 21.4063,94.5078 Q22.1094,94.5078 22.75,94.6641 Q23.4063,94.8203 23.9688,95.1172 L23.9688,97.8359 Q23.3438,97.2578 22.75,96.9922 Q22.1563,96.7109 21.5313,96.7109 Q20.1875,96.7109 19.5,97.7891 Q18.8125,98.8516 18.8125,100.9453 Q18.8125,103.0391 19.5,104.1172 Q20.1875,105.1797 21.5313,105.1797 Q22.1563,105.1797 22.75,104.9141 Q23.3438,104.6328 23.9688,104.0547 L23.9688,106.7734 Z " fill="#000000"/><text fill="#000000" font-family="sans-serif" font-size="12" font-style="italic" lengthAdjust="spacing" textLength="64.4824" x="54.6709" y="97.1387">&#171;external&#187;</text><text fill="#000000" font-family="sans-serif" font-size="14" lengthAdjust="spacing" textLength="103.8242" x="35" y="112.9639">ErrorException</text></g><!--class ModularNumber__class--><g class="entity" data-entity="ModularNumber__class" data-source-line="15" data-uid="ent0003" id="entity_ModularNumber__class"><rect fill="#F1F1F1" height="32" rx="2.5" ry="2.5" style="stroke:#181818;stroke-width:0.5;" width="144.8682" x="199" y="408"/><ellipse cx="214" cy="424" fill="#ADD1B2" rx="11" ry="11" style="stroke:#181818;stroke-width:1;"/><path d="M216.9688,429.6406 Q216.3906,429.9375 215.75,430.0781 Q215.1094,430.2344 214.4063,430.2344 Q211.9063,430.2344 210.5781,428.5938 Q209.2656,426.9375 209.2656,423.8125 Q209.2656,420.6875 210.5781,419.0313 Q211.9063,417.375 214.4063,417.375 Q215.1094,417.375 215.75,417.5313 Q216.4063,417.6875 216.9688,417.9844 L216.9688,420.7031 Q216.3438,420.125 215.75,419.8594 Q215.1563,419.5781 214.5313,419.5781 Q213.1875,419.5781 212.5,420.6563 Q211.8125,421.7188 211.8125,423.8125 Q211.8125,425.9063 212.5,426.9844 Q213.1875,428.0469 214.5313,428.0469 Q215.1563,428.0469 215.75,427.7813 Q216.3438,427.5 216.9688,426.9219 L216.9688,429.6406 Z " fill="#000000"/><text fill="#000000" font-family="sans-serif" font-size="14" lengthAdjust="spacing" textLength="112.8682" x="228" y="428.8467">ModularNumber</text></g><!--class DifferentModulusError__class--><g class="entity" data-entity="DifferentModulusError__class" data-source-line="21" data-uid="ent0007" id="entity_DifferentModulusError__class"><rect fill="#F1F1F1" height="32" rx="2.5" ry="2.5" style="stroke:#181818;stroke-width:0.5;" width="187.0117" x="178" y="85"/><ellipse cx="193" cy="101" fill="#ADD1B2" rx="11" ry="11" style="stroke:#181818;stroke-width:1;"/><path d="M195.9688,106.6406 Q195.3906,106.9375 194.75,107.0781 Q194.1094,107.2344 193.4063,107.2344 Q190.9063,107.2344 189.5781,105.5938 Q188.2656,103.9375 188.2656,100.8125 Q188.2656,97.6875 189.5781,96.0313 Q190.9063,94.375 193.4063,94.375 Q194.1094,94.375 194.75,94.5313 Q195.4063,94.6875 195.9688,94.9844 L195.9688,97.7031 Q195.3438,97.125 194.75,96.8594 Q194.1563,96.5781 193.5313,96.5781 Q192.1875,96.5781 191.5,97.6563 Q190.8125,98.7188 190.8125,100.8125 Q190.8125,102.9063 191.5,103.9844 Q192.1875,105.0469 193.5313,105.0469 Q194.1563,105.0469 194.75,104.7813 Q195.3438,104.5 195.9688,103.9219 L195.9688,106.6406 Z " fill="#000000"/><text fill="#000000" font-family="sans-serif" font-size="14" lengthAdjust="spacing" textLength="155.0117" x="207" y="105.8467">DifferentModulusError</text></g><!--class Operation__class--><g class="entity" data-entity="Operation__class" data-source-line="25" data-uid="ent0010" id="entity_Operation__class"><rect fill="#F1F1F1" height="32" rx="2.5" ry="2.5" style="stroke:#181818;stroke-width:0.5;" width="101.6719" x="220.5" y="260"/><ellipse cx="235.5" cy="276" fill="#A9DCDF" rx="11" ry="11" style="stroke:#181818;stroke-width:1;"/><path d="M235.6094,271.3438 L234.4531,276.4219 L236.7813,276.4219 L235.6094,271.3438 Z M234.125,269.1094 L237.1094,269.1094 L240.4688,281.5 L238.0156,281.5 L237.25,278.4375 L233.9688,278.4375 L233.2188,281.5 L230.7813,281.5 L234.125,269.1094 Z " fill="#000000"/><text fill="#000000" font-family="sans-serif" font-size="14" font-style="italic" lengthAdjust="spacing" textLength="69.6719" x="249.5" y="280.8467">Operation</text></g><!--class ModularAddition__class--><g class="entity" data-entity="ModularAddition__class" data-source-line="29" data-uid="ent0011" id="entity_ModularAddition__class"><rect fill="#F1F1F1" height="32" rx="2.5" ry="2.5" style="stroke:#181818;stroke-width:0.5;" width="146.6865" x="424.5" y="360"/><ellipse cx="439.5" cy="376" fill="#ADD1B2" rx="11" ry="11" style="stroke:#181818;stroke-width:1;"/><path d="M442.4688,381.6406 Q441.8906,381.9375 441.25,382.0781 Q440.6094,382.2344 439.9063,382.2344 Q437.4063,382.2344 436.0781,380.5938 Q434.7656,378.9375 434.7656,375.8125 Q434.7656,372.6875 436.0781,371.0313 Q437.4063,369.375 439.9063,369.375 Q440.6094,369.375 441.25,369.5313 Q441.9063,369.6875 442.4688,369.9844 L442.4688,372.7031 Q441.8438,372.125 441.25,371.8594 Q440.6563,371.5781 440.0313,371.5781 Q438.6875,371.5781 438,372.6563 Q437.3125,373.7188 437.3125,375.8125 Q437.3125,377.9063 438,378.9844 Q438.6875,380.0469 440.0313,380.0469 Q440.6563,380.0469 441.25,379.7813 Q441.8438,379.5 442.4688,378.9219 L442.4688,381.6406 Z " fill="#000000"/><text fill="#000000" font-family="sans-serif" font-size="14" lengthAdjust="spacing" textLength="114.6865" x="453.5" y="380.8467">ModularAddition</text></g><!--class ModularDivision__class--><g class="entity" data-entity="ModularDivision__class" data-source-line="33" data-uid="ent0013" id="entity_ModularDivision__class"><rect fill="#F1F1F1" height="32" rx="2.5" ry="2.5" style="stroke:#181818;stroke-width:0.5;" width="144.0957" x="426" y="310"/><ellipse cx="441" cy="326" fill="#ADD1B2" rx="11" ry="11" style="stroke:#181818;stroke-width:1;"/><path d="M443.9688,331.6406 Q443.3906,331.9375 442.75,332.0781 Q442.1094,332.2344 441.4063,332.2344 Q438.9063,332.2344 437.5781,330.5938 Q436.2656,328.9375 436.2656,325.8125 Q436.2656,322.6875 437.5781,321.0313 Q438.9063,319.375 441.4063,319.375 Q442.1094,319.375 442.75,319.5313 Q443.4063,319.6875 443.9688,319.9844 L443.9688,322.7031 Q443.3438,322.125 442.75,321.8594 Q442.1563,321.5781 441.5313,321.5781 Q440.1875,321.5781 439.5,322.6563 Q438.8125,323.7188 438.8125,325.8125 Q438.8125,327.9063 439.5,328.9844 Q440.1875,330.0469 441.5313,330.0469 Q442.1563,330.0469 442.75,329.7813 Q443.3438,329.5 443.9688,328.9219 L443.9688,331.6406 Z " fill="#000000"/><text fill="#000000" font-family="sans-serif" font-size="14" lengthAdjust="spacing" textLength="112.0957" x="455" y="330.8467">ModularDivision</text></g><!--class ModularExponentiation__class--><g class="entity" data-entity="ModularExponentiation__class" data-source-line="37" data-uid="ent0015" id="entity_ModularExponentiation__class"><rect fill="#F1F1F1" height="32" rx="2.5" ry="2.5" style="stroke:#181818;stroke-width:0.5;" width="194.3467" x="401" y="260"/><ellipse cx="416" cy="276" fill="#ADD1B2" rx="11" ry="11" style="stroke:#181818;stroke-width:1;"/><path d="M418.9688,281.6406 Q418.3906,281.9375 417.75,282.0781 Q417.1094,282.2344 416.4063,282.2344 Q413.9063,282.2344 412.5781,280.5938 Q411.2656,278.9375 411.2656,275.8125 Q411.2656,272.6875 412.5781,271.0313 Q413.9063,269.375 416.4063,269.375 Q417.1094,269.375 417.75,269.5313 Q418.4063,269.6875 418.9688,269.9844 L418.9688,272.7031 Q418.3438,272.125 417.75,271.8594 Q417.1563,271.5781 416.5313,271.5781 Q415.1875,271.5781 414.5,272.6563 Q413.8125,273.7188 413.8125,275.8125 Q413.8125,277.9063 414.5,278.9844 Q415.1875,280.0469 416.5313,280.0469 Q417.1563,280.0469 417.75,279.7813 Q418.3438,279.5 418.9688,278.9219 L418.9688,281.6406 Z " fill="#000000"/><text fill="#000000" font-family="sans-serif" font-size="14" lengthAdjust="spacing" textLength="162.3467" x="430" y="280.8467">ModularExponentiation</text></g><!--class ModularMultiplication__class--><g class="entity" data-entity="ModularMultiplication__class" data-source-line="41" data-uid="ent0017" id="entity_ModularMultiplication__class"><rect fill="#F1F1F1" height="32" rx="2.5" ry="2.5" style="stroke:#181818;stroke-width:0.5;" width="182.6094" x="406.5" y="210"/><ellipse cx="421.5" cy="226" fill="#ADD1B2" rx="11" ry="11" style="stroke:#181818;stroke-width:1;"/><path d="M424.4688,231.6406 Q423.8906,231.9375 423.25,232.0781 Q422.6094,232.2344 421.9063,232.2344 Q419.4063,232.2344 418.0781,230.5938 Q416.7656,228.9375 416.7656,225.8125 Q416.7656,222.6875 418.0781,221.0313 Q419.4063,219.375 421.9063,219.375 Q422.6094,219.375 423.25,219.5313 Q423.9063,219.6875 424.4688,219.9844 L424.4688,222.7031 Q423.8438,222.125 423.25,221.8594 Q422.6563,221.5781 422.0313,221.5781 Q420.6875,221.5781 420,222.6563 Q419.3125,223.7188 419.3125,225.8125 Q419.3125,227.9063 420,228.9844 Q420.6875,230.0469 422.0313,230.0469 Q422.6563,230.0469 423.25,229.7813 Q423.8438,229.5 424.4688,228.9219 L424.4688,231.6406 Z " fill="#000000"/><text fill="#000000" font-family="sans-serif" font-size="14" lengthAdjust="spacing" textLength="150.6094" x="435.5" y="230.8467">ModularMultiplication</text></g><!--class ModularSubtraction__class--><g class="entity" data-entity="ModularSubtraction__class" data-source-line="45" data-uid="ent0019" id="entity_ModularSubtraction__class"><rect fill="#F1F1F1" height="32" rx="2.5" ry="2.5" style="stroke:#181818;stroke-width:0.5;" width="169.6143" x="413" y="160"/><ellipse cx="428" cy="176" fill="#ADD1B2" rx="11" ry="11" style="stroke:#181818;stroke-width:1;"/><path d="M430.9688,181.6406 Q430.3906,181.9375 429.75,182.0781 Q429.1094,182.2344 428.4063,182.2344 Q425.9063,182.2344 424.5781,180.5938 Q423.2656,178.9375 423.2656,175.8125 Q423.2656,172.6875 424.5781,171.0313 Q425.9063,169.375 428.4063,169.375 Q429.1094,169.375 429.75,169.5313 Q430.4063,169.6875 430.9688,169.9844 L430.9688,172.7031 Q430.3438,172.125 429.75,171.8594 Q429.1563,171.5781 428.5313,171.5781 Q427.1875,171.5781 426.5,172.6563 Q425.8125,173.7188 425.8125,175.8125 Q425.8125,177.9063 426.5,178.9844 Q427.1875,180.0469 428.5313,180.0469 Q429.1563,180.0469 429.75,179.7813 Q430.3438,179.5 430.9688,178.9219 L430.9688,181.6406 Z " fill="#000000"/><text fill="#000000" font-family="sans-serif" font-size="14" lengthAdjust="spacing" textLength="137.6143" x="442" y="180.8467">ModularSubtraction</text></g><g class="link" data-entity-1="ErrorException__class" data-entity-2="DifferentModulusError__class" data-uid="lnk8" id="link_ErrorException__class_DifferentModulusError__class"><polygon fill="none" points="142.0065,101,160.0065,107,160.0065,95,142.0065,101" style="stroke:#516F42;stroke-width:1;"/><path d="M160.0065,101 C171.502,101 165.6291,101 177.6568,101" fill="none" style="stroke:#516F42;stroke-width:1;"/></g><g class="link" data-entity-1="Operation__class" data-entity-2="ModularAddition__class" data-uid="lnk12" id="link_Operation__class_ModularAddition__class"><polygon fill="none" points="322.6605,277.187,339.5901,285.7538,341.3443,273.8827,322.6605,277.187" style="stroke:#516F42;stroke-width:1;"/><path d="M340.4672,279.8183 C357.818,282.3822 358.6761,285.1522 373,296 C394.8668,312.5602 379.6254,333.8093 401,351 C407.8445,356.5047 415.772,360.8084 424.0793,364.171" fill="none" style="stroke:#516F42;stroke-width:1;"/></g><g class="link" data-entity-1="Operation__class" data-entity-2="ModularDivision__class" data-uid="lnk14" id="link_Operation__class_ModularDivision__class"><polygon fill="none" points="322.6815,285.5671,339.1768,294.9428,341.5032,283.1705,322.6815,285.5671" style="stroke:#516F42;stroke-width:1;"/><path d="M340.34,289.0567 C356.4398,292.2382 356.6692,292.4011 373,296 C392.4669,300.29 413.572,305.2715 432.7575,309.928" fill="none" style="stroke:#516F42;stroke-width:1;"/></g><g class="link" data-entity-1="Operation__class" data-entity-2="ModularExponentiation__class" data-uid="lnk16" id="link_Operation__class_ModularExponentiation__class"><polygon fill="none" points="322.6028,276,340.6028,282,340.6028,270,322.6028,276" style="stroke:#516F42;stroke-width:1;"/><path d="M340.6028,276 C363.6055,276 373.6927,276 400.5488,276" fill="none" style="stroke:#516F42;stroke-width:1;"/></g><g class="link" data-entity-1="Operation__class" data-entity-2="ModularMultiplication__class" data-uid="lnk18" id="link_Operation__class_ModularMultiplication__class"><polygon fill="none" points="322.6028,264.8413,341.4766,266.7847,338.8679,255.0717,322.6028,264.8413" style="stroke:#516F42;stroke-width:1;"/><path d="M340.1723,260.9282 C370.2826,254.2221 391.5353,249.4888 424.9045,242.0569" fill="none" style="stroke:#516F42;stroke-width:1;"/></g><g class="link" data-entity-1="Operation__class" data-entity-2="ModularSubtraction__class" data-uid="lnk20" id="link_Operation__class_ModularSubtraction__class"><polygon fill="none" points="295.6458,259.8589,313.9337,254.8038,307.2431,244.8421,295.6458,259.8589" style="stroke:#516F42;stroke-width:1;"/><path d="M310.5884,249.823 C335.5709,233.0439 362.082,217.0674 401,201 C409.0392,197.681 417.6424,194.6986 426.2742,192.0492" fill="none" style="stroke:#516F42;stroke-width:1;"/></g><!--SRC=[rLFBRjim4BppAxR95xHeSme2kBMFRW-v2WZMv4fQX2A99TNO2FBlfHHRiLGLi97qO9wacNtCx9AVWc3L85ZS-JP1R2YXGmK0yP5TGC465YB-wOUtNk3ws-URykkNCOywyMzEk-zU3CafWQWVA_6jC_lWiZ_pmKl6nZjpSl53_2azOet6Fx6he4GRIQb_Ks-CPKTf5mYyfDghcWq1DI7jeA5cGnALfJ91yY1SrGaC2sLjtgb82Hms50DgkgUkNChIYaAf0OOrYlRQkyYLPLyKQszQYx8GJdNU3cjuxam0Q8inmjMU_zbslQy08uoGXuVNk7nUyrxKYzgdhl9YPRNL53fvVUuOEYJVtW9j4ub32tTtpxd26NgBOgWN9zgNN9Oav5AVrCQ-UwzZbddpqgbn9kRHpGi-ydgMqb-1yawEbE8c9ibNQv0yHFGoXx_PCR-lzMJ12sDuw3l1vWPpLikZxmyVuSJ7Ch_IEF5nm2x9nseRlCiNb76wbJ5pIPxMhKqSBEk_F8sPI_9qtsxw5pmnT0J_PpT_0000]--></g></svg>