<svg xmlns="http://www.w3.org/2000/svg" xmlns:xlink="http://www.w3.org/1999/xlink" contentStyleType="text/css" data-diagram-type="CLASS" height="413px" preserveAspectRatio="none" style="width:699px;height:413px;background:#FFFFFF;" version="1.1" viewBox="0 0 699 413" width="699px" zoomAndPan="magnify"><defs/><g><!--cluster Marcoconsiglio--><g class="cluster" data-entity="Marcoconsiglio" data-source-line="15" data-uid="ent0004" id="cluster_Marcoconsiglio"><path d="M156.5,4 L275.9531,4 A3.75,3.75 0 0 1 278.4531,6.5 L285.4531,26.2969 L689.5,26.2969 A2.5,2.5 0 0 1 692,28.7969 L692,403.5 A2.5,2.5 0 0 1 689.5,406 L156.5,406 A2.5,2.5 0 0 1 154,403.5 L154,6.5 A2.5,2.5 0 0 1 156.5,4" fill="none" style="stroke:#000000;stroke-width:1.5;"/><line style="stroke:#000000;stroke-width:1.5;" x1="154" x2="285.4531" y1="26.2969" y2="26.2969"/><text fill="#000000" font-family="sans-serif" font-size="14" font-weight="bold" lengthAdjust="spacing" textLength="118.4531" x="158" y="18.9951">Marcoconsiglio</text></g><!--cluster ModularArithmetic--><g class="cluster" data-entity="ModularArithmetic" data-source-line="14" data-uid="ent0002" id="cluster_ModularArithmetic"><path d="M164.5,31 L313.2588,31 A3.75,3.75 0 0 1 315.7588,33.5 L322.7588,53.2969 L681.5,53.2969 A2.5,2.5 0 0 1 684,55.7969 L684,395.5 A2.5,2.5 0 0 1 681.5,398 L164.5,398 A2.5,2.5 0 0 1 162,395.5 L162,33.5 A2.5,2.5 0 0 1 164.5,31" fill="none" style="stroke:#000000;stroke-width:1.5;"/><line style="stroke:#000000;stroke-width:1.5;" x1="162" x2="322.7588" y1="53.2969" y2="53.2969"/><text fill="#000000" font-family="sans-serif" font-size="14" font-weight="bold" lengthAdjust="spacing" textLength="147.7588" x="166" y="45.9951">ModularArithmetic</text></g><!--cluster Exceptions--><g class="cluster" data-entity="Exceptions" data-source-line="20" data-uid="ent0006" id="cluster_Exceptions"><path d="M183.5,58 L270.3184,58 A3.75,3.75 0 0 1 272.8184,60.5 L279.8184,80.2969 L381.5,80.2969 A2.5,2.5 0 0 1 384,82.7969 L384,172.5 A2.5,2.5 0 0 1 381.5,175 L183.5,175 A2.5,2.5 0 0 1 181,172.5 L181,60.5 A2.5,2.5 0 0 1 183.5,58" fill="none" style="stroke:#000000;stroke-width:1.5;"/><line style="stroke:#000000;stroke-width:1.5;" x1="181" x2="279.8184" y1="80.2969" y2="80.2969"/><text fill="#000000" font-family="sans-serif" font-size="14" font-weight="bold" lengthAdjust="spacing" textLength="85.8184" x="185" y="72.9951">Exceptions</text></g><!--cluster Operations--><g class="cluster" data-entity="Operations" data-source-line="28" data-uid="ent0011" id="cluster_Operations"><path d="M172.5,183 L260.6787,183 A3.75,3.75 0 0 1 263.1787,185.5 L270.1787,205.2969 L673.5,205.2969 A2.5,2.5 0 0 1 676,207.7969 L676,347.5 A2.5,2.5 0 0 1 673.5,350 L172.5,350 A2.5,2.5 0 0 1 170,347.5 L170,185.5 A2.5,2.5 0 0 1 172.5,183" fill="none" style="stroke:#000000;stroke-width:1.5;"/><line style="stroke:#000000;stroke-width:1.5;" x1="170" x2="270.1787" y1="205.2969" y2="205.2969"/><text fill="#000000" font-family="sans-serif" font-size="14" font-weight="bold" lengthAdjust="spacing" textLength="87.1787" x="174" y="197.9951">Operations</text></g><!--class ErrorException__class--><g class="entity" data-entity="ErrorException__class" data-source-line="18" data-uid="ent0005" id="entity_ErrorException__class"><rect fill="#F1F1F1" height="40.2656" rx="2.5" ry="2.5" style="stroke:#181818;stroke-width:0.5;" width="135.8242" x="6" y="106"/><ellipse cx="21" cy="126.1328" fill="#ADD1B2" rx="11" ry="11" style="stroke:#181818;stroke-width:1;"/><path d="M23.9688,131.7734 Q23.3906,132.0703 22.75,132.2109 Q22.1094,132.3672 21.4063,132.3672 Q18.9063,132.3672 17.5781,130.7266 Q16.2656,129.0703 16.2656,125.9453 Q16.2656,122.8203 17.5781,121.1641 Q18.9063,119.5078 21.4063,119.5078 Q22.1094,119.5078 22.75,119.6641 Q23.4063,119.8203 23.9688,120.1172 L23.9688,122.8359 Q23.3438,122.2578 22.75,121.9922 Q22.1563,121.7109 21.5313,121.7109 Q20.1875,121.7109 19.5,122.7891 Q18.8125,123.8516 18.8125,125.9453 Q18.8125,128.0391 19.5,129.1172 Q20.1875,130.1797 21.5313,130.1797 Q22.1563,130.1797 22.75,129.9141 Q23.3438,129.6328 23.9688,129.0547 L23.9688,131.7734 Z " fill="#000000"/><text fill="#000000" font-family="sans-serif" font-size="12" font-style="italic" lengthAdjust="spacing" textLength="64.4824" x="54.6709" y="122.1387">&#171;external&#187;</text><text fill="#000000" font-family="sans-serif" font-size="14" lengthAdjust="spacing" textLength="103.8242" x="35" y="137.9639">ErrorException</text></g><!--class ModularInteger__class--><g class="entity" data-entity="ModularInteger__class" data-source-line="15" data-uid="ent0003" id="entity_ModularInteger__class"><rect fill="#F1F1F1" height="32" rx="2.5" ry="2.5" style="stroke:#181818;stroke-width:0.5;" width="138.9893" x="213" y="358"/><ellipse cx="228" cy="374" fill="#ADD1B2" rx="11" ry="11" style="stroke:#181818;stroke-width:1;"/><path d="M230.9688,379.6406 Q230.3906,379.9375 229.75,380.0781 Q229.1094,380.2344 228.4063,380.2344 Q225.9063,380.2344 224.5781,378.5938 Q223.2656,376.9375 223.2656,373.8125 Q223.2656,370.6875 224.5781,369.0313 Q225.9063,367.375 228.4063,367.375 Q229.1094,367.375 229.75,367.5313 Q230.4063,367.6875 230.9688,367.9844 L230.9688,370.7031 Q230.3438,370.125 229.75,369.8594 Q229.1563,369.5781 228.5313,369.5781 Q227.1875,369.5781 226.5,370.6563 Q225.8125,371.7188 225.8125,373.8125 Q225.8125,375.9063 226.5,376.9844 Q227.1875,378.0469 228.5313,378.0469 Q229.1563,378.0469 229.75,377.7813 Q230.3438,377.5 230.9688,376.9219 L230.9688,379.6406 Z " fill="#000000"/><text fill="#000000" font-family="sans-serif" font-size="14" lengthAdjust="spacing" textLength="106.9893" x="242" y="378.8467">ModularInteger</text></g><!--class DifferentModulusError__class--><g class="entity" data-entity="DifferentModulusError__class" data-source-line="21" data-uid="ent0007" id="entity_DifferentModulusError__class"><rect fill="#F1F1F1" height="32" rx="2.5" ry="2.5" style="stroke:#181818;stroke-width:0.5;" width="187.0117" x="189" y="85"/><ellipse cx="204" cy="101" fill="#ADD1B2" rx="11" ry="11" style="stroke:#181818;stroke-width:1;"/><path d="M206.9688,106.6406 Q206.3906,106.9375 205.75,107.0781 Q205.1094,107.2344 204.4063,107.2344 Q201.9063,107.2344 200.5781,105.5938 Q199.2656,103.9375 199.2656,100.8125 Q199.2656,97.6875 200.5781,96.0313 Q201.9063,94.375 204.4063,94.375 Q205.1094,94.375 205.75,94.5313 Q206.4063,94.6875 206.9688,94.9844 L206.9688,97.7031 Q206.3438,97.125 205.75,96.8594 Q205.1563,96.5781 204.5313,96.5781 Q203.1875,96.5781 202.5,97.6563 Q201.8125,98.7188 201.8125,100.8125 Q201.8125,102.9063 202.5,103.9844 Q203.1875,105.0469 204.5313,105.0469 Q205.1563,105.0469 205.75,104.7813 Q206.3438,104.5 206.9688,103.9219 L206.9688,106.6406 Z " fill="#000000"/><text fill="#000000" font-family="sans-serif" font-size="14" lengthAdjust="spacing" textLength="155.0117" x="218" y="105.8467">DifferentModulusError</text></g><!--class IntegerOverflowError__class--><g class="entity" data-entity="IntegerOverflowError__class" data-source-line="25" data-uid="ent0009" id="entity_IntegerOverflowError__class"><rect fill="#F1F1F1" height="32" rx="2.5" ry="2.5" style="stroke:#181818;stroke-width:0.5;" width="179.5469" x="192.5" y="135"/><ellipse cx="207.5" cy="151" fill="#ADD1B2" rx="11" ry="11" style="stroke:#181818;stroke-width:1;"/><path d="M210.4688,156.6406 Q209.8906,156.9375 209.25,157.0781 Q208.6094,157.2344 207.9063,157.2344 Q205.4063,157.2344 204.0781,155.5938 Q202.7656,153.9375 202.7656,150.8125 Q202.7656,147.6875 204.0781,146.0313 Q205.4063,144.375 207.9063,144.375 Q208.6094,144.375 209.25,144.5313 Q209.9063,144.6875 210.4688,144.9844 L210.4688,147.7031 Q209.8438,147.125 209.25,146.8594 Q208.6563,146.5781 208.0313,146.5781 Q206.6875,146.5781 206,147.6563 Q205.3125,148.7188 205.3125,150.8125 Q205.3125,152.9063 206,153.9844 Q206.6875,155.0469 208.0313,155.0469 Q208.6563,155.0469 209.25,154.7813 Q209.8438,154.5 210.4688,153.9219 L210.4688,156.6406 Z " fill="#000000"/><text fill="#000000" font-family="sans-serif" font-size="14" lengthAdjust="spacing" textLength="147.5469" x="221.5" y="155.8467">IntegerOverflowError</text></g><!--class IntegerModularOperation__class--><g class="entity" data-entity="IntegerModularOperation__class" data-source-line="29" data-uid="ent0012" id="entity_IntegerModularOperation__class"><rect fill="#F1F1F1" height="32" rx="2.5" ry="2.5" style="stroke:#181818;stroke-width:0.5;" width="208.6611" x="178" y="260"/><ellipse cx="193" cy="276" fill="#A9DCDF" rx="11" ry="11" style="stroke:#181818;stroke-width:1;"/><path d="M193.1094,271.3438 L191.9531,276.4219 L194.2813,276.4219 L193.1094,271.3438 Z M191.625,269.1094 L194.6094,269.1094 L197.9688,281.5 L195.5156,281.5 L194.75,278.4375 L191.4688,278.4375 L190.7188,281.5 L188.2813,281.5 L191.625,269.1094 Z " fill="#000000"/><text fill="#000000" font-family="sans-serif" font-size="14" font-style="italic" lengthAdjust="spacing" textLength="176.6611" x="207" y="280.8467">IntegerModularOperation</text></g><!--class IntegerModularAddition__class--><g class="entity" data-entity="IntegerModularAddition__class" data-source-line="33" data-uid="ent0013" id="entity_IntegerModularAddition__class"><rect fill="#F1F1F1" height="32" rx="2.5" ry="2.5" style="stroke:#181818;stroke-width:0.5;" width="197.0469" x="447" y="310"/><ellipse cx="462" cy="326" fill="#ADD1B2" rx="11" ry="11" style="stroke:#181818;stroke-width:1;"/><path d="M464.9688,331.6406 Q464.3906,331.9375 463.75,332.0781 Q463.1094,332.2344 462.4063,332.2344 Q459.9063,332.2344 458.5781,330.5938 Q457.2656,328.9375 457.2656,325.8125 Q457.2656,322.6875 458.5781,321.0313 Q459.9063,319.375 462.4063,319.375 Q463.1094,319.375 463.75,319.5313 Q464.4063,319.6875 464.9688,319.9844 L464.9688,322.7031 Q464.3438,322.125 463.75,321.8594 Q463.1563,321.5781 462.5313,321.5781 Q461.1875,321.5781 460.5,322.6563 Q459.8125,323.7188 459.8125,325.8125 Q459.8125,327.9063 460.5,328.9844 Q461.1875,330.0469 462.5313,330.0469 Q463.1563,330.0469 463.75,329.7813 Q464.3438,329.5 464.9688,328.9219 L464.9688,331.6406 Z " fill="#000000"/><text fill="#000000" font-family="sans-serif" font-size="14" lengthAdjust="spacing" textLength="165.0469" x="476" y="330.8467">IntegerModularAddition</text></g><!--class IntegerModularExponentiation__class--><g class="entity" data-entity="IntegerModularExponentiation__class" data-source-line="37" data-uid="ent0015" id="entity_IntegerModularExponentiation__class"><rect fill="#F1F1F1" height="32" rx="2.5" ry="2.5" style="stroke:#181818;stroke-width:0.5;" width="244.707" x="423" y="260"/><ellipse cx="438" cy="276" fill="#ADD1B2" rx="11" ry="11" style="stroke:#181818;stroke-width:1;"/><path d="M440.9688,281.6406 Q440.3906,281.9375 439.75,282.0781 Q439.1094,282.2344 438.4063,282.2344 Q435.9063,282.2344 434.5781,280.5938 Q433.2656,278.9375 433.2656,275.8125 Q433.2656,272.6875 434.5781,271.0313 Q435.9063,269.375 438.4063,269.375 Q439.1094,269.375 439.75,269.5313 Q440.4063,269.6875 440.9688,269.9844 L440.9688,272.7031 Q440.3438,272.125 439.75,271.8594 Q439.1563,271.5781 438.5313,271.5781 Q437.1875,271.5781 436.5,272.6563 Q435.8125,273.7188 435.8125,275.8125 Q435.8125,277.9063 436.5,278.9844 Q437.1875,280.0469 438.5313,280.0469 Q439.1563,280.0469 439.75,279.7813 Q440.3438,279.5 440.9688,278.9219 L440.9688,281.6406 Z " fill="#000000"/><text fill="#000000" font-family="sans-serif" font-size="14" lengthAdjust="spacing" textLength="212.707" x="452" y="280.8467">IntegerModularExponentiation</text></g><!--class IntegerModularMultiplication__class--><g class="entity" data-entity="IntegerModularMultiplication__class" data-source-line="41" data-uid="ent0017" id="entity_IntegerModularMultiplication__class"><rect fill="#F1F1F1" height="32" rx="2.5" ry="2.5" style="stroke:#181818;stroke-width:0.5;" width="232.9697" x="429" y="210"/><ellipse cx="444" cy="226" fill="#ADD1B2" rx="11" ry="11" style="stroke:#181818;stroke-width:1;"/><path d="M446.9688,231.6406 Q446.3906,231.9375 445.75,232.0781 Q445.1094,232.2344 444.4063,232.2344 Q441.9063,232.2344 440.5781,230.5938 Q439.2656,228.9375 439.2656,225.8125 Q439.2656,222.6875 440.5781,221.0313 Q441.9063,219.375 444.4063,219.375 Q445.1094,219.375 445.75,219.5313 Q446.4063,219.6875 446.9688,219.9844 L446.9688,222.7031 Q446.3438,222.125 445.75,221.8594 Q445.1563,221.5781 444.5313,221.5781 Q443.1875,221.5781 442.5,222.6563 Q441.8125,223.7188 441.8125,225.8125 Q441.8125,227.9063 442.5,228.9844 Q443.1875,230.0469 444.5313,230.0469 Q445.1563,230.0469 445.75,229.7813 Q446.3438,229.5 446.9688,228.9219 L446.9688,231.6406 Z " fill="#000000"/><text fill="#000000" font-family="sans-serif" font-size="14" lengthAdjust="spacing" textLength="200.9697" x="458" y="230.8467">IntegerModularMultiplication</text></g><g class="link" data-entity-1="ErrorException__class" data-entity-2="DifferentModulusError__class" data-uid="lnk8" id="link_ErrorException__class_DifferentModulusError__class"><polygon fill="none" points="142.0446,117.8832,160.6353,121.6763,159.193,109.7633,142.0446,117.8832" style="stroke:#516F42;stroke-width:1;"/><path d="M159.9142,115.7198 C174.8706,113.9091 173.118,114.1213 188.8995,112.2107" fill="none" style="stroke:#516F42;stroke-width:1;"/></g><g class="link" data-entity-1="ErrorException__class" data-entity-2="IntegerOverflowError__class" data-uid="lnk10" id="link_ErrorException__class_IntegerOverflowError__class"><polygon fill="none" points="142.0446,134.1168,159.193,142.2367,160.6353,130.3237,142.0446,134.1168" style="stroke:#516F42;stroke-width:1;"/><path d="M159.9142,136.2802 C175.9305,138.2192 175.4081,138.1559 192.249,140.1948" fill="none" style="stroke:#516F42;stroke-width:1;"/></g><g class="link" data-entity-1="IntegerModularOperation__class" data-entity-2="IntegerModularAddition__class" data-uid="lnk14" id="link_IntegerModularOperation__class_IntegerModularAddition__class"><polygon fill="none" points="367.159,292.0266,383.7086,301.3062,385.9664,289.5205,367.159,292.0266" style="stroke:#516F42;stroke-width:1;"/><path d="M384.8375,295.4133 C414.8075,301.1547 430.8992,304.2374 460.867,309.9784" fill="none" style="stroke:#516F42;stroke-width:1;"/></g><g class="link" data-entity-1="IntegerModularOperation__class" data-entity-2="IntegerModularExponentiation__class" data-uid="lnk16" id="link_IntegerModularOperation__class_IntegerModularExponentiation__class"><polygon fill="none" points="387.029,276,405.029,282,405.029,270,387.029,276" style="stroke:#516F42;stroke-width:1;"/><path d="M405.029,276 C416.8418,276 410.963,276 422.982,276" fill="none" style="stroke:#516F42;stroke-width:1;"/></g><g class="link" data-entity-1="IntegerModularOperation__class" data-entity-2="IntegerModularMultiplication__class" data-uid="lnk18" id="link_IntegerModularOperation__class_IntegerModularMultiplication__class"><polygon fill="none" points="367.159,259.9734,385.9664,262.4795,383.7086,250.6938,367.159,259.9734" style="stroke:#516F42;stroke-width:1;"/><path d="M384.8375,256.5867 C414.8075,250.8453 430.8992,247.7626 460.867,242.0216" fill="none" style="stroke:#516F42;stroke-width:1;"/></g><!--SRC=[rPFFRjim3CRlUWgkUu8Dwqv5WMpDeOUWXrqD5An4sqHbqQ3a9a7HTv_YEdySE5YAhWEcexwFrE-Zf4-jOjKWU5nBbo0sb32W0O3uoA55nGPcghByALuKFbz- -Lv- -phMqIP-uhJ-8Uf8pp6YVQnKkk06SzclQVCDOoF1dTrywp_dZ5YZaoM72ahqaOmvBUqLpu7IkYKGJRMOcXq1DMrQGqFD0saqdie4IK2vgXCuLifi4aoa104RYYrQ-aMRTYcZ5OKnksrOe5gn4Y9NdgKe5k8wZpfJJdM-7RRml0a1O3t621U3VXiILQGNW176M_VthywyNYjVp8iPYkVvQdM-ijHk0FlYyTQs-EeAQ9L80tguldxE7Tv0N1IxVl68_eRBafH2wekws9_USqmg-omRck1Y7juqy47MlqCwJFFkYRJqijo3JWaVptdNKduz1vpu49FcJt0CFDJk_8VCnzhaKtaVrZJDp3a-0RELfaRu9e2Y-5FAZyquNxKIyllbKsCV6_xxl8lE9suzsrDvnuP_clSt]--></g></svg>