<svg xmlns="http://www.w3.org/2000/svg" xmlns:xlink="http://www.w3.org/1999/xlink" contentStyleType="text/css" data-diagram-type="CLASS" height="547px" preserveAspectRatio="none" style="width:682px;height:547px;background:#FFFFFF;" version="1.1" viewBox="0 0 682 547" width="682px" zoomAndPan="magnify"><defs/><g><!--cluster Marcoconsiglio--><g class="cluster" data-entity="Marcoconsiglio" data-source-line="17" data-uid="ent0005" id="cluster_Marcoconsiglio"><path d="M185.5,4 L304.9531,4 A3.75,3.75 0 0 1 307.4531,6.5 L314.4531,26.2969 L672.5,26.2969 A2.5,2.5 0 0 1 675,28.7969 L675,507.5 A2.5,2.5 0 0 1 672.5,510 L185.5,510 A2.5,2.5 0 0 1 183,507.5 L183,6.5 A2.5,2.5 0 0 1 185.5,4" fill="none" style="stroke:#000000;stroke-width:1.5;"/><line style="stroke:#000000;stroke-width:1.5;" x1="183" x2="314.4531" y1="26.2969" y2="26.2969"/><text fill="#000000" font-family="sans-serif" font-size="14" font-weight="bold" lengthAdjust="spacing" textLength="118.4531" x="187" y="18.9951">Marcoconsiglio</text></g><!--cluster ModularArithmetic--><g class="cluster" data-entity="ModularArithmetic" data-source-line="16" data-uid="ent0003" id="cluster_ModularArithmetic"><path d="M193.5,31 L342.2588,31 A3.75,3.75 0 0 1 344.7588,33.5 L351.7588,53.2969 L664.5,53.2969 A2.5,2.5 0 0 1 667,55.7969 L667,499.5 A2.5,2.5 0 0 1 664.5,502 L193.5,502 A2.5,2.5 0 0 1 191,499.5 L191,33.5 A2.5,2.5 0 0 1 193.5,31" fill="none" style="stroke:#000000;stroke-width:1.5;"/><line style="stroke:#000000;stroke-width:1.5;" x1="191" x2="351.7588" y1="53.2969" y2="53.2969"/><text fill="#000000" font-family="sans-serif" font-size="14" font-weight="bold" lengthAdjust="spacing" textLength="147.7588" x="195" y="45.9951">ModularArithmetic</text></g><!--cluster Operations--><g class="cluster" data-entity="Operations" data-source-line="36" data-uid="ent0016" id="cluster_Operations"><path d="M243.5,58 L331.6787,58 A3.75,3.75 0 0 1 334.1787,60.5 L341.1787,80.2969 L656.5,80.2969 A2.5,2.5 0 0 1 659,82.7969 L659,399.5 A2.5,2.5 0 0 1 656.5,402 L243.5,402 A2.5,2.5 0 0 1 241,399.5 L241,60.5 A2.5,2.5 0 0 1 243.5,58" fill="none" style="stroke:#000000;stroke-width:1.5;"/><line style="stroke:#000000;stroke-width:1.5;" x1="241" x2="341.1787" y1="80.2969" y2="80.2969"/><text fill="#000000" font-family="sans-serif" font-size="14" font-weight="bold" lengthAdjust="spacing" textLength="87.1787" x="245" y="72.9951">Operations</text></g><!--cluster Relative--><g class="cluster" data-entity="Relative" data-source-line="60" data-uid="ent0028" id="cluster_Relative"><path d="M251.5,85 L317.1338,85 A3.75,3.75 0 0 1 319.6338,87.5 L326.6338,107.2969 L633,107.2969 A2.5,2.5 0 0 1 635.5,109.7969 L635.5,149.5 A2.5,2.5 0 0 1 633,152 L251.5,152 A2.5,2.5 0 0 1 249,149.5 L249,87.5 A2.5,2.5 0 0 1 251.5,85" fill="none" style="stroke:#000000;stroke-width:1.5;"/><line style="stroke:#000000;stroke-width:1.5;" x1="249" x2="326.6338" y1="107.2969" y2="107.2969"/><text fill="#000000" font-family="sans-serif" font-size="14" font-weight="bold" lengthAdjust="spacing" textLength="64.6338" x="253" y="99.9951">Relative</text></g><!--cluster MarcoConsiglio--><g class="cluster" data-entity="MarcoConsiglio" data-source-line="29" data-uid="ent0013" id="cluster_MarcoConsiglio"><path d="M8.5,430 L129.9287,430 A3.75,3.75 0 0 1 132.4287,432.5 L139.4287,452.2969 L170.5,452.2969 A2.5,2.5 0 0 1 173,454.7969 L173,537.5 A2.5,2.5 0 0 1 170.5,540 L8.5,540 A2.5,2.5 0 0 1 6,537.5 L6,432.5 A2.5,2.5 0 0 1 8.5,430" fill="none" style="stroke:#000000;stroke-width:1.5;"/><line style="stroke:#000000;stroke-width:1.5;" x1="6" x2="139.4287" y1="452.2969" y2="452.2969"/><text fill="#000000" font-family="sans-serif" font-size="14" font-weight="bold" lengthAdjust="spacing" textLength="120.4287" x="10" y="444.9951">MarcoConsiglio</text></g><!--cluster BCMathExtended--><g class="cluster" data-entity="BCMathExtended" data-source-line="28" data-uid="ent0011" id="cluster_BCMathExtended"><path d="M16.5,457 L152.7695,457 A3.75,3.75 0 0 1 155.2695,459.5 L162.2695,479.2969 L162.5,479.2969 A2.5,2.5 0 0 1 165,481.7969 L165,529.5 A2.5,2.5 0 0 1 162.5,532 L16.5,532 A2.5,2.5 0 0 1 14,529.5 L14,459.5 A2.5,2.5 0 0 1 16.5,457" fill="none" style="stroke:#000000;stroke-width:1.5;"/><line style="stroke:#000000;stroke-width:1.5;" x1="14" x2="162.2695" y1="479.2969" y2="479.2969"/><text fill="#000000" font-family="sans-serif" font-size="14" font-weight="bold" lengthAdjust="spacing" textLength="135.2695" x="18" y="471.9951">BCMathExtended</text></g><!--class Stringable__class--><g class="entity" data-entity="Stringable__class" data-source-line="14" data-uid="ent0002" id="entity_Stringable__class"><rect fill="#F1F1F1" height="40.2656" rx="2.5" ry="2.5" style="stroke:#181818;stroke-width:0.5;" width="103.75" x="37" y="382"/><ellipse cx="52" cy="402.1328" fill="#B4A7E5" rx="11" ry="11" style="stroke:#181818;stroke-width:1;"/><path d="M47.9219,397.8984 L47.9219,395.7422 L55.3125,395.7422 L55.3125,397.8984 L52.8438,397.8984 L52.8438,405.9766 L55.3125,405.9766 L55.3125,408.1328 L47.9219,408.1328 L47.9219,405.9766 L50.3906,405.9766 L50.3906,397.8984 L47.9219,397.8984 Z " fill="#000000"/><text fill="#000000" font-family="sans-serif" font-size="12" font-style="italic" lengthAdjust="spacing" textLength="64.4824" x="69.6338" y="398.1387">&#171;external&#187;</text><text fill="#000000" font-family="sans-serif" font-size="14" font-style="italic" lengthAdjust="spacing" textLength="71.75" x="66" y="413.9639">Stringable</text></g><!--class ModularArithmeticNumber__class--><g class="entity" data-entity="ModularArithmeticNumber__class" data-source-line="17" data-uid="ent0004" id="entity_ModularArithmeticNumber__class"><rect fill="#F1F1F1" height="32" rx="2.5" ry="2.5" style="stroke:#181818;stroke-width:0.5;" width="217.7803" x="199" y="412"/><ellipse cx="214" cy="428" fill="#A9DCDF" rx="11" ry="11" style="stroke:#181818;stroke-width:1;"/><path d="M214.1094,423.3438 L212.9531,428.4219 L215.2813,428.4219 L214.1094,423.3438 Z M212.625,421.1094 L215.6094,421.1094 L218.9688,433.5 L216.5156,433.5 L215.75,430.4375 L212.4688,430.4375 L211.7188,433.5 L209.2813,433.5 L212.625,421.1094 Z " fill="#000000"/><text fill="#000000" font-family="sans-serif" font-size="14" font-style="italic" lengthAdjust="spacing" textLength="185.7803" x="228" y="432.8467">ModularArithmeticNumber</text></g><!--class ModularNumber__class--><g class="entity" data-entity="ModularNumber__class" data-source-line="21" data-uid="ent0007" id="entity_ModularNumber__class"><rect fill="#F1F1F1" height="32" rx="2.5" ry="2.5" style="stroke:#181818;stroke-width:0.5;" width="144.8682" x="481.5" y="462"/><ellipse cx="496.5" cy="478" fill="#ADD1B2" rx="11" ry="11" style="stroke:#181818;stroke-width:1;"/><path d="M499.4688,483.6406 Q498.8906,483.9375 498.25,484.0781 Q497.6094,484.2344 496.9063,484.2344 Q494.4063,484.2344 493.0781,482.5938 Q491.7656,480.9375 491.7656,477.8125 Q491.7656,474.6875 493.0781,473.0313 Q494.4063,471.375 496.9063,471.375 Q497.6094,471.375 498.25,471.5313 Q498.9063,471.6875 499.4688,471.9844 L499.4688,474.7031 Q498.8438,474.125 498.25,473.8594 Q497.6563,473.5781 497.0313,473.5781 Q495.6875,473.5781 495,474.6563 Q494.3125,475.7188 494.3125,477.8125 Q494.3125,479.9063 495,480.9844 Q495.6875,482.0469 497.0313,482.0469 Q497.6563,482.0469 498.25,481.7813 Q498.8438,481.5 499.4688,480.9219 L499.4688,483.6406 Z " fill="#000000"/><text fill="#000000" font-family="sans-serif" font-size="14" lengthAdjust="spacing" textLength="112.8682" x="510.5" y="482.8467">ModularNumber</text></g><!--class ModularRelativeNumber__class--><g class="entity" data-entity="ModularRelativeNumber__class" data-source-line="25" data-uid="ent0009" id="entity_ModularRelativeNumber__class"><rect fill="#F1F1F1" height="32" rx="2.5" ry="2.5" style="stroke:#181818;stroke-width:0.5;" width="201.9551" x="453" y="412"/><ellipse cx="468" cy="428" fill="#ADD1B2" rx="11" ry="11" style="stroke:#181818;stroke-width:1;"/><path d="M470.9688,433.6406 Q470.3906,433.9375 469.75,434.0781 Q469.1094,434.2344 468.4063,434.2344 Q465.9063,434.2344 464.5781,432.5938 Q463.2656,430.9375 463.2656,427.8125 Q463.2656,424.6875 464.5781,423.0313 Q465.9063,421.375 468.4063,421.375 Q469.1094,421.375 469.75,421.5313 Q470.4063,421.6875 470.9688,421.9844 L470.9688,424.7031 Q470.3438,424.125 469.75,423.8594 Q469.1563,423.5781 468.5313,423.5781 Q467.1875,423.5781 466.5,424.6563 Q465.8125,425.7188 465.8125,427.8125 Q465.8125,429.9063 466.5,430.9844 Q467.1875,432.0469 468.5313,432.0469 Q469.1563,432.0469 469.75,431.7813 Q470.3438,431.5 470.9688,430.9219 L470.9688,433.6406 Z " fill="#000000"/><text fill="#000000" font-family="sans-serif" font-size="14" lengthAdjust="spacing" textLength="169.9551" x="482" y="432.8467">ModularRelativeNumber</text></g><!--class Ring__class--><g class="entity" data-entity="Ring__class" data-source-line="33" data-uid="ent0014" id="entity_Ring__class"><rect fill="#F1F1F1" height="32" rx="2.5" ry="2.5" style="stroke:#181818;stroke-width:0.5;" width="63.377" x="276.5" y="462"/><ellipse cx="291.5" cy="478" fill="#ADD1B2" rx="11" ry="11" style="stroke:#181818;stroke-width:1;"/><path d="M294.4688,483.6406 Q293.8906,483.9375 293.25,484.0781 Q292.6094,484.2344 291.9063,484.2344 Q289.4063,484.2344 288.0781,482.5938 Q286.7656,480.9375 286.7656,477.8125 Q286.7656,474.6875 288.0781,473.0313 Q289.4063,471.375 291.9063,471.375 Q292.6094,471.375 293.25,471.5313 Q293.9063,471.6875 294.4688,471.9844 L294.4688,474.7031 Q293.8438,474.125 293.25,473.8594 Q292.6563,473.5781 292.0313,473.5781 Q290.6875,473.5781 290,474.6563 Q289.3125,475.7188 289.3125,477.8125 Q289.3125,479.9063 290,480.9844 Q290.6875,482.0469 292.0313,482.0469 Q292.6563,482.0469 293.25,481.7813 Q293.8438,481.5 294.4688,480.9219 L294.4688,483.6406 Z " fill="#000000"/><text fill="#000000" font-family="sans-serif" font-size="14" lengthAdjust="spacing" textLength="31.377" x="305.5" y="482.8467">Ring</text></g><!--class Operation__class--><g class="entity" data-entity="Operation__class" data-source-line="37" data-uid="ent0017" id="entity_Operation__class"><rect fill="#F1F1F1" height="32" rx="2.5" ry="2.5" style="stroke:#181818;stroke-width:0.5;" width="101.6719" x="257" y="262"/><ellipse cx="272" cy="278" fill="#A9DCDF" rx="11" ry="11" style="stroke:#181818;stroke-width:1;"/><path d="M272.1094,273.3438 L270.9531,278.4219 L273.2813,278.4219 L272.1094,273.3438 Z M270.625,271.1094 L273.6094,271.1094 L276.9688,283.5 L274.5156,283.5 L273.75,280.4375 L270.4688,280.4375 L269.7188,283.5 L267.2813,283.5 L270.625,271.1094 Z " fill="#000000"/><text fill="#000000" font-family="sans-serif" font-size="14" font-style="italic" lengthAdjust="spacing" textLength="69.6719" x="286" y="282.8467">Operation</text></g><!--class ModularAddition__class--><g class="entity" data-entity="ModularAddition__class" data-source-line="41" data-uid="ent0018" id="entity_ModularAddition__class"><rect fill="#F1F1F1" height="32" rx="2.5" ry="2.5" style="stroke:#181818;stroke-width:0.5;" width="146.6865" x="480.5" y="362"/><ellipse cx="495.5" cy="378" fill="#ADD1B2" rx="11" ry="11" style="stroke:#181818;stroke-width:1;"/><path d="M498.4688,383.6406 Q497.8906,383.9375 497.25,384.0781 Q496.6094,384.2344 495.9063,384.2344 Q493.4063,384.2344 492.0781,382.5938 Q490.7656,380.9375 490.7656,377.8125 Q490.7656,374.6875 492.0781,373.0313 Q493.4063,371.375 495.9063,371.375 Q496.6094,371.375 497.25,371.5313 Q497.9063,371.6875 498.4688,371.9844 L498.4688,374.7031 Q497.8438,374.125 497.25,373.8594 Q496.6563,373.5781 496.0313,373.5781 Q494.6875,373.5781 494,374.6563 Q493.3125,375.7188 493.3125,377.8125 Q493.3125,379.9063 494,380.9844 Q494.6875,382.0469 496.0313,382.0469 Q496.6563,382.0469 497.25,381.7813 Q497.8438,381.5 498.4688,380.9219 L498.4688,383.6406 Z " fill="#000000"/><text fill="#000000" font-family="sans-serif" font-size="14" lengthAdjust="spacing" textLength="114.6865" x="509.5" y="382.8467">ModularAddition</text></g><!--class ModularDivision__class--><g class="entity" data-entity="ModularDivision__class" data-source-line="45" data-uid="ent0020" id="entity_ModularDivision__class"><rect fill="#F1F1F1" height="32" rx="2.5" ry="2.5" style="stroke:#181818;stroke-width:0.5;" width="144.0957" x="482" y="312"/><ellipse cx="497" cy="328" fill="#ADD1B2" rx="11" ry="11" style="stroke:#181818;stroke-width:1;"/><path d="M499.9688,333.6406 Q499.3906,333.9375 498.75,334.0781 Q498.1094,334.2344 497.4063,334.2344 Q494.9063,334.2344 493.5781,332.5938 Q492.2656,330.9375 492.2656,327.8125 Q492.2656,324.6875 493.5781,323.0313 Q494.9063,321.375 497.4063,321.375 Q498.1094,321.375 498.75,321.5313 Q499.4063,321.6875 499.9688,321.9844 L499.9688,324.7031 Q499.3438,324.125 498.75,323.8594 Q498.1563,323.5781 497.5313,323.5781 Q496.1875,323.5781 495.5,324.6563 Q494.8125,325.7188 494.8125,327.8125 Q494.8125,329.9063 495.5,330.9844 Q496.1875,332.0469 497.5313,332.0469 Q498.1563,332.0469 498.75,331.7813 Q499.3438,331.5 499.9688,330.9219 L499.9688,333.6406 Z " fill="#000000"/><text fill="#000000" font-family="sans-serif" font-size="14" lengthAdjust="spacing" textLength="112.0957" x="511" y="332.8467">ModularDivision</text></g><!--class ModularExponentiation__class--><g class="entity" data-entity="ModularExponentiation__class" data-source-line="49" data-uid="ent0022" id="entity_ModularExponentiation__class"><rect fill="#F1F1F1" height="32" rx="2.5" ry="2.5" style="stroke:#181818;stroke-width:0.5;" width="194.3467" x="457" y="262"/><ellipse cx="472" cy="278" fill="#ADD1B2" rx="11" ry="11" style="stroke:#181818;stroke-width:1;"/><path d="M474.9688,283.6406 Q474.3906,283.9375 473.75,284.0781 Q473.1094,284.2344 472.4063,284.2344 Q469.9063,284.2344 468.5781,282.5938 Q467.2656,280.9375 467.2656,277.8125 Q467.2656,274.6875 468.5781,273.0313 Q469.9063,271.375 472.4063,271.375 Q473.1094,271.375 473.75,271.5313 Q474.4063,271.6875 474.9688,271.9844 L474.9688,274.7031 Q474.3438,274.125 473.75,273.8594 Q473.1563,273.5781 472.5313,273.5781 Q471.1875,273.5781 470.5,274.6563 Q469.8125,275.7188 469.8125,277.8125 Q469.8125,279.9063 470.5,280.9844 Q471.1875,282.0469 472.5313,282.0469 Q473.1563,282.0469 473.75,281.7813 Q474.3438,281.5 474.9688,280.9219 L474.9688,283.6406 Z " fill="#000000"/><text fill="#000000" font-family="sans-serif" font-size="14" lengthAdjust="spacing" textLength="162.3467" x="486" y="282.8467">ModularExponentiation</text></g><!--class ModularMultiplication__class--><g class="entity" data-entity="ModularMultiplication__class" data-source-line="53" data-uid="ent0024" id="entity_ModularMultiplication__class"><rect fill="#F1F1F1" height="32" rx="2.5" ry="2.5" style="stroke:#181818;stroke-width:0.5;" width="182.6094" x="462.5" y="212"/><ellipse cx="477.5" cy="228" fill="#ADD1B2" rx="11" ry="11" style="stroke:#181818;stroke-width:1;"/><path d="M480.4688,233.6406 Q479.8906,233.9375 479.25,234.0781 Q478.6094,234.2344 477.9063,234.2344 Q475.4063,234.2344 474.0781,232.5938 Q472.7656,230.9375 472.7656,227.8125 Q472.7656,224.6875 474.0781,223.0313 Q475.4063,221.375 477.9063,221.375 Q478.6094,221.375 479.25,221.5313 Q479.9063,221.6875 480.4688,221.9844 L480.4688,224.7031 Q479.8438,224.125 479.25,223.8594 Q478.6563,223.5781 478.0313,223.5781 Q476.6875,223.5781 476,224.6563 Q475.3125,225.7188 475.3125,227.8125 Q475.3125,229.9063 476,230.9844 Q476.6875,232.0469 478.0313,232.0469 Q478.6563,232.0469 479.25,231.7813 Q479.8438,231.5 480.4688,230.9219 L480.4688,233.6406 Z " fill="#000000"/><text fill="#000000" font-family="sans-serif" font-size="14" lengthAdjust="spacing" textLength="150.6094" x="491.5" y="232.8467">ModularMultiplication</text></g><!--class ModularSubtraction__class--><g class="entity" data-entity="ModularSubtraction__class" data-source-line="57" data-uid="ent0026" id="entity_ModularSubtraction__class"><rect fill="#F1F1F1" height="32" rx="2.5" ry="2.5" style="stroke:#181818;stroke-width:0.5;" width="169.6143" x="469" y="162"/><ellipse cx="484" cy="178" fill="#ADD1B2" rx="11" ry="11" style="stroke:#181818;stroke-width:1;"/><path d="M486.9688,183.6406 Q486.3906,183.9375 485.75,184.0781 Q485.1094,184.2344 484.4063,184.2344 Q481.9063,184.2344 480.5781,182.5938 Q479.2656,180.9375 479.2656,177.8125 Q479.2656,174.6875 480.5781,173.0313 Q481.9063,171.375 484.4063,171.375 Q485.1094,171.375 485.75,171.5313 Q486.4063,171.6875 486.9688,171.9844 L486.9688,174.7031 Q486.3438,174.125 485.75,173.8594 Q485.1563,173.5781 484.5313,173.5781 Q483.1875,173.5781 482.5,174.6563 Q481.8125,175.7188 481.8125,177.8125 Q481.8125,179.9063 482.5,180.9844 Q483.1875,182.0469 484.5313,182.0469 Q485.1563,182.0469 485.75,181.7813 Q486.3438,181.5 486.9688,180.9219 L486.9688,183.6406 Z " fill="#000000"/><text fill="#000000" font-family="sans-serif" font-size="14" lengthAdjust="spacing" textLength="137.6143" x="498" y="182.8467">ModularSubtraction</text></g><!--class Operation__class--><g class="entity" data-entity="Operation__class" data-source-line="61" data-uid="ent0029" id="entity_Operation__class"><rect fill="#F1F1F1" height="32" rx="2.5" ry="2.5" style="stroke:#181818;stroke-width:0.5;" width="101.6719" x="257" y="112"/><ellipse cx="272" cy="128" fill="#A9DCDF" rx="11" ry="11" style="stroke:#181818;stroke-width:1;"/><path d="M272.1094,123.3438 L270.9531,128.4219 L273.2813,128.4219 L272.1094,123.3438 Z M270.625,121.1094 L273.6094,121.1094 L276.9688,133.5 L274.5156,133.5 L273.75,130.4375 L270.4688,130.4375 L269.7188,133.5 L267.2813,133.5 L270.625,121.1094 Z " fill="#000000"/><text fill="#000000" font-family="sans-serif" font-size="14" font-style="italic" lengthAdjust="spacing" textLength="69.6719" x="286" y="132.8467">Operation</text></g><!--class ModularAddition__class--><g class="entity" data-entity="ModularAddition__class" data-source-line="65" data-uid="ent0030" id="entity_ModularAddition__class"><rect fill="#F1F1F1" height="32" rx="2.5" ry="2.5" style="stroke:#181818;stroke-width:0.5;" width="146.6865" x="480.5" y="112"/><ellipse cx="495.5" cy="128" fill="#ADD1B2" rx="11" ry="11" style="stroke:#181818;stroke-width:1;"/><path d="M498.4688,133.6406 Q497.8906,133.9375 497.25,134.0781 Q496.6094,134.2344 495.9063,134.2344 Q493.4063,134.2344 492.0781,132.5938 Q490.7656,130.9375 490.7656,127.8125 Q490.7656,124.6875 492.0781,123.0313 Q493.4063,121.375 495.9063,121.375 Q496.6094,121.375 497.25,121.5313 Q497.9063,121.6875 498.4688,121.9844 L498.4688,124.7031 Q497.8438,124.125 497.25,123.8594 Q496.6563,123.5781 496.0313,123.5781 Q494.6875,123.5781 494,124.6563 Q493.3125,125.7188 493.3125,127.8125 Q493.3125,129.9063 494,130.9844 Q494.6875,132.0469 496.0313,132.0469 Q496.6563,132.0469 497.25,131.7813 Q497.8438,131.5 498.4688,130.9219 L498.4688,133.6406 Z " fill="#000000"/><text fill="#000000" font-family="sans-serif" font-size="14" lengthAdjust="spacing" textLength="114.6865" x="509.5" y="132.8467">ModularAddition</text></g><!--class Range__class--><g class="entity" data-entity="Range__class" data-source-line="29" data-uid="ent0012" id="entity_Range__class"><rect fill="#F1F1F1" height="40.2656" rx="2.5" ry="2.5" style="stroke:#181818;stroke-width:0.5;" width="92.4824" x="43" y="484"/><ellipse cx="58" cy="504.1328" fill="#ADD1B2" rx="11" ry="11" style="stroke:#181818;stroke-width:1;"/><path d="M60.9688,509.7734 Q60.3906,510.0703 59.75,510.2109 Q59.1094,510.3672 58.4063,510.3672 Q55.9063,510.3672 54.5781,508.7266 Q53.2656,507.0703 53.2656,503.9453 Q53.2656,500.8203 54.5781,499.1641 Q55.9063,497.5078 58.4063,497.5078 Q59.1094,497.5078 59.75,497.6641 Q60.4063,497.8203 60.9688,498.1172 L60.9688,500.8359 Q60.3438,500.2578 59.75,499.9922 Q59.1563,499.7109 58.5313,499.7109 Q57.1875,499.7109 56.5,500.7891 Q55.8125,501.8516 55.8125,503.9453 Q55.8125,506.0391 56.5,507.1172 Q57.1875,508.1797 58.5313,508.1797 Q59.1563,508.1797 59.75,507.9141 Q60.3438,507.6328 60.9688,507.0547 L60.9688,509.7734 Z " fill="#000000"/><text fill="#000000" font-family="sans-serif" font-size="12" font-style="italic" lengthAdjust="spacing" textLength="64.4824" x="70" y="500.1387">&#171;external&#187;</text><text fill="#000000" font-family="sans-serif" font-size="14" lengthAdjust="spacing" textLength="44.6797" x="79.9014" y="515.9639">Range</text></g><g class="link" data-entity-1="Stringable__class" data-entity-2="ModularArithmeticNumber__class" data-uid="lnk6" id="link_Stringable__class_ModularArithmeticNumber__class"><polygon fill="none" points="141.1512,408.1287,158.3096,416.2275,159.7371,404.3127,141.1512,408.1287" style="stroke:#516F42;stroke-width:1;"/><path d="M159.0234,410.2701 C176.4404,412.3569 178.752,412.6339 198.9166,415.0499" fill="none" style="stroke:#516F42;stroke-width:1;stroke-dasharray:7,7;"/></g><g class="link" data-entity-1="ModularArithmeticNumber__class" data-entity-2="ModularNumber__class" data-uid="lnk8" id="link_ModularArithmeticNumber__class_ModularNumber__class"><polygon fill="none" points="387.2099,444.0266,403.639,453.5179,406.048,441.7622,387.2099,444.0266" style="stroke:#516F42;stroke-width:1;"/><path d="M404.8435,447.6401 C435.0917,453.8385 451.8472,457.272 481.4336,463.3347" fill="none" style="stroke:#516F42;stroke-width:1;"/></g><g class="link" data-entity-1="ModularArithmeticNumber__class" data-entity-2="ModularRelativeNumber__class" data-uid="lnk10" id="link_ModularArithmeticNumber__class_ModularRelativeNumber__class"><polygon fill="none" points="417.0875,428,435.0875,434,435.0875,422,417.0875,428" style="stroke:#516F42;stroke-width:1;"/><path d="M435.0875,428 C446.9424,428 440.9748,428 452.7292,428" fill="none" style="stroke:#516F42;stroke-width:1;"/></g><g class="link" data-entity-1="Range__class" data-entity-2="Ring__class" data-uid="lnk15" id="link_Range__class_Ring__class"><polygon fill="none" points="135.2262,498.5812,153.8121,502.3972,152.3846,490.4824,135.2262,498.5812" style="stroke:#516F42;stroke-width:1;"/><path d="M153.0983,496.4398 C195.4546,491.3649 239.7137,486.062 276.4908,481.6555" fill="none" style="stroke:#516F42;stroke-width:1;"/></g><g class="link" data-entity-1="Operation__class" data-entity-2="ModularAddition__class" data-uid="lnk19" id="link_Operation__class_ModularAddition__class"><polygon fill="none" points="359.1799,278.9848,376.3007,287.1627,377.7833,275.2546,359.1799,278.9848" style="stroke:#516F42;stroke-width:1;"/><path d="M377.042,281.2086 C396.424,283.6217 400.0931,286.749 417,298 C441.322,314.1855 429.1902,336.07 453,353 C461.2402,358.8592 470.7141,363.3499 480.4757,366.7907" fill="none" style="stroke:#516F42;stroke-width:1;"/></g><g class="link" data-entity-1="Operation__class" data-entity-2="ModularDivision__class" data-uid="lnk21" id="link_Operation__class_ModularDivision__class"><polygon fill="none" points="359.0741,286.9068,375.6986,296.0515,377.8605,284.2479,359.0741,286.9068" style="stroke:#516F42;stroke-width:1;"/><path d="M376.7795,290.1497 C395.0381,293.4939 398.1249,294.1716 417,298 C438.3266,302.3256 461.467,307.3176 482.51,311.9729" fill="none" style="stroke:#516F42;stroke-width:1;"/></g><g class="link" data-entity-1="Operation__class" data-entity-2="ModularExponentiation__class" data-uid="lnk23" id="link_Operation__class_ModularExponentiation__class"><polygon fill="none" points="359.2611,278,377.2611,284,377.2611,272,359.2611,278" style="stroke:#516F42;stroke-width:1;"/><path d="M377.2611,278 C405.4416,278 423.5423,278 456.9273,278" fill="none" style="stroke:#516F42;stroke-width:1;"/></g><g class="link" data-entity-1="Operation__class" data-entity-2="ModularMultiplication__class" data-uid="lnk25" id="link_Operation__class_ModularMultiplication__class"><polygon fill="none" points="359.2611,267.7006,378.0992,269.965,375.6902,258.2093,359.2611,267.7006" style="stroke:#516F42;stroke-width:1;"/><path d="M376.8947,264.0872 C410.0974,257.2833 436.6615,251.8399 474.4577,244.0947" fill="none" style="stroke:#516F42;stroke-width:1;"/></g><g class="link" data-entity-1="Operation__class" data-entity-2="ModularSubtraction__class" data-uid="lnk27" id="link_Operation__class_ModularSubtraction__class"><polygon fill="none" points="335.1965,261.9495,353.7422,257.9421,347.6286,247.6162,335.1965,261.9495" style="stroke:#516F42;stroke-width:1;"/><path d="M350.6854,252.7791 C378.8975,236.0757 410.0413,219.2963 453,203 C461.7006,199.6994 470.9926,196.7082 480.2767,194.0369" fill="none" style="stroke:#516F42;stroke-width:1;"/></g><g class="link" data-entity-1="Operation__class" data-entity-2="ModularAddition__class" data-uid="lnk31" id="link_Operation__class_ModularAddition__class"><polygon fill="none" points="359.2611,128,377.2611,134,377.2611,122,359.2611,128" style="stroke:#516F42;stroke-width:1;"/><path d="M377.2611,128 C412.138,128 441.1463,128 480.1238,128" fill="none" style="stroke:#516F42;stroke-width:1;"/></g><!--SRC=[rLNRRjim37tNLt3P5spOzbGKQDC-PWEILmC5Oz6sK5qCYLuR5FttoSxLShq5MT0jVf99ckSSYgG_r1vBWw1nvHg6O8ZHeW20yAXiZHuDt7ZldgPEEmyVltxwLdpvtFTZpkgdujMjyvByCO6OFvRUDLPkWelkUJluJg5nLXwTV1j_34QeKBedPKieK0SIOjorzsXbYLSrWVDSEL4fIK2cvXKOCaloGMWg6DY1LsN589MdoCrP4OZ1eg5GOquBQjDnf9PbGYZBv8jeXic2VOJ5fQO9O83zwyD3hZ44kBe2UexX5ZLSNx-8Lx5B2ZFqkSkT3QhKocNPpCb6ex_nYgjujog7bxO4WCl0FfOCO9rpCWZythHYEWeZlYsV-2XJQp9aEKGrGyPhpDUJc2O4XxHICcrjh6o9_17Y3LEIxOpCvwGnjYWD5VGzxwrakazxEvqXL_STBCdD9niLSxJbkYExqrWp_dsvvh5vrZZnC5gCKTPPrkDtsWrcsO-QudJ6gGrZ4xEBwCZktWwcubpGwOnAgNQuYUt4vjb37fpFNi94nrtSro7HiRLTaexxvzhPkFiKfhVIzroIfbcZMTLQvGDDVSybQLeqosw24q47vlzJJTnecn_4Frn50nBlkvIsuByly2y0]--></g></svg>